<svg width="128" height="108" viewBox="0 0 128 108" fill="none" xmlns="http://www.w3.org/2000/svg">
<path d="M0 0H128V88C128 99.0457 119.046 108 108 108H20C8.95431 108 0 99.0457 0 88V0Z" fill="black"/>
<path d="M42.6211 29.7031C42.6211 30.7891 42.4805 31.8945 42.1992 33.0195C41.9258 34.1367 41.5391 35.2188 41.0391 36.2656C40.5469 37.3203 39.9531 38.3047 39.2578 39.2188C38.5625 40.1328 37.7969 40.9297 36.9609 41.6094L35.1562 40.5195C35.625 39.8789 36.0352 39.1523 36.3867 38.3398C36.7383 37.5273 37.0312 36.6836 37.2656 35.8086C37.5 34.9336 37.6758 34.0547 37.793 33.1719C37.9102 32.2891 37.9688 31.4492 37.9688 30.6523V18.125H42.6211V29.7031ZM45.4219 29.2109C45.4219 28.5938 45.4727 27.9531 45.5742 27.2891C45.6836 26.625 45.8359 25.9609 46.0312 25.2969C46.2344 24.6328 46.4766 23.9766 46.7578 23.3281C47.0391 22.6797 47.3555 22.0586 47.707 21.4648H50.6016C50.4062 22.0508 50.2305 22.6641 50.0742 23.3047C49.9258 23.9375 49.7969 24.5742 49.6875 25.2148C49.5859 25.8477 49.5039 26.4688 49.4414 27.0781C49.3867 27.6875 49.3594 28.2539 49.3594 28.7773C49.3594 29.082 49.3711 29.4102 49.3945 29.7617C49.4258 30.1055 49.4766 30.4531 49.5469 30.8047C49.6172 31.1484 49.7148 31.4805 49.8398 31.8008C49.9727 32.1211 50.1406 32.4062 50.3438 32.6562C50.5469 32.8984 50.793 33.0938 51.082 33.2422C51.3789 33.3828 51.7266 33.4531 52.125 33.4531C52.5156 33.4531 52.8633 33.3672 53.168 33.1953C53.4805 33.0156 53.7539 32.7852 53.9883 32.5039C54.2227 32.2148 54.4219 31.8867 54.5859 31.5195C54.75 31.1523 54.8828 30.7773 54.9844 30.3945C55.0938 30.0039 55.1719 29.625 55.2188 29.2578C55.2734 28.8828 55.3008 28.5469 55.3008 28.25V21.4648H59.2617V35H57.7383L55.9219 31.8477C55.6953 32.3711 55.418 32.8477 55.0898 33.2773C54.7695 33.6992 54.4023 34.0625 53.9883 34.3672C53.5742 34.6719 53.1133 34.9062 52.6055 35.0703C52.1055 35.2344 51.5625 35.3164 50.9766 35.3164C50.0391 35.3164 49.2227 35.1641 48.5273 34.8594C47.832 34.5547 47.2539 34.1328 46.793 33.5938C46.332 33.0547 45.9883 32.4141 45.7617 31.6719C45.5352 30.9219 45.4219 30.1016 45.4219 29.2109ZM76.4062 27.2422C76.4062 28.1562 76.293 29.1094 76.0664 30.1016C75.8477 31.0938 75.5391 32.0664 75.1406 33.0195C74.7422 33.9727 74.2656 34.8672 73.7109 35.7031C73.1562 36.5469 72.5469 37.2734 71.8828 37.8828L70.3945 37.0742C70.6055 36.6836 70.8047 36.2461 70.9922 35.7617C71.1797 35.2773 71.3477 34.7656 71.4961 34.2266C71.6523 33.6797 71.7891 33.1172 71.9062 32.5391C72.0312 31.9609 72.1328 31.3906 72.2109 30.8281C72.2969 30.2578 72.3594 29.707 72.3984 29.1758C72.4453 28.6367 72.4688 28.1367 72.4688 27.6758C72.4688 27.3711 72.457 27.0469 72.4336 26.7031C72.4102 26.3516 72.3594 26.0039 72.2812 25.6602C72.2109 25.3086 72.1133 24.9727 71.9883 24.6523C71.8633 24.332 71.6953 24.0508 71.4844 23.8086C71.2812 23.5664 71.0312 23.3711 70.7344 23.2227C70.4453 23.0742 70.1016 23 69.7031 23C69.3125 23 68.9648 23.0898 68.6602 23.2695C68.3555 23.4414 68.0859 23.6719 67.8516 23.9609C67.6172 24.2422 67.4141 24.5664 67.2422 24.9336C67.0781 25.3008 66.9414 25.6797 66.832 26.0703C66.7305 26.4531 66.6562 26.832 66.6094 27.207C66.5625 27.582 66.5391 27.918 66.5391 28.2148V35H62.5664V21.4648H64.0898L65.9062 24.6172C66.125 24.0938 66.3984 23.6172 66.7266 23.1875C67.0547 22.7578 67.4258 22.3906 67.8398 22.0859C68.2539 21.7812 68.7109 21.5469 69.2109 21.3828C69.7188 21.2188 70.2656 21.1367 70.8516 21.1367C71.7891 21.1367 72.6055 21.2891 73.3008 21.5938C73.9961 21.8984 74.5742 22.3242 75.0352 22.8711C75.4961 23.4102 75.8398 24.0547 76.0664 24.8047C76.293 25.5469 76.4062 26.3594 76.4062 27.2422ZM82.2773 28.5781C82.7617 28.6875 83.2461 28.7734 83.7305 28.8359C84.2148 28.8984 84.7031 28.9297 85.1953 28.9297C85.7109 28.9297 86.1875 28.8828 86.625 28.7891C87.0703 28.6875 87.4531 28.5234 87.7734 28.2969C88.1016 28.0625 88.3594 27.7539 88.5469 27.3711C88.7344 26.9883 88.8281 26.5117 88.8281 25.9414C88.8281 25.4805 88.7656 25.0586 88.6406 24.6758C88.5156 24.293 88.3281 23.9648 88.0781 23.6914C87.8359 23.418 87.5352 23.207 87.1758 23.0586C86.8164 22.9023 86.3984 22.8242 85.9219 22.8242C85.4766 22.8242 85.0742 22.9062 84.7148 23.0703C84.3633 23.2344 84.0508 23.457 83.7773 23.7383C83.5117 24.0117 83.2812 24.332 83.0859 24.6992C82.8984 25.0664 82.7422 25.4492 82.6172 25.8477C82.4922 26.2461 82.4023 26.6484 82.3477 27.0547C82.293 27.4609 82.2656 27.8438 82.2656 28.2031C82.2656 28.2656 82.2656 28.3281 82.2656 28.3906C82.2656 28.4531 82.2695 28.5156 82.2773 28.5781ZM92.0391 25.9062C92.0391 26.4609 91.9492 26.957 91.7695 27.3945C91.5898 27.8242 91.3438 28.2031 91.0312 28.5312C90.7266 28.8594 90.3711 29.1367 89.9648 29.3633C89.5586 29.5898 89.125 29.7773 88.6641 29.9258C88.2031 30.0664 87.7266 30.168 87.2344 30.2305C86.75 30.293 86.2773 30.3242 85.8164 30.3242C85.2305 30.3242 84.6523 30.2852 84.082 30.207C83.5117 30.1211 82.9492 29.9883 82.3945 29.8086C82.4805 30.3242 82.6172 30.8164 82.8047 31.2852C82.9922 31.7461 83.2422 32.1523 83.5547 32.5039C83.8672 32.8477 84.25 33.1211 84.7031 33.3242C85.1641 33.5273 85.707 33.6289 86.332 33.6289C86.7461 33.6289 87.1406 33.5664 87.5156 33.4414C87.8906 33.3164 88.2344 33.1406 88.5469 32.9141C88.8594 32.6875 89.1328 32.418 89.3672 32.1055C89.6094 31.793 89.8047 31.4453 89.9531 31.0625L91.6641 31.6953C91.4062 32.3125 91.0508 32.8477 90.5977 33.3008C90.1523 33.7461 89.6445 34.1172 89.0742 34.4141C88.5117 34.7031 87.9102 34.918 87.2695 35.0586C86.6367 35.1992 86.0078 35.2695 85.3828 35.2695C84.3516 35.2695 83.3984 35.0977 82.5234 34.7539C81.6484 34.4023 80.8945 33.9141 80.2617 33.2891C79.6289 32.6641 79.1328 31.918 78.7734 31.0508C78.4141 30.1836 78.2344 29.2344 78.2344 28.2031C78.2344 27.1719 78.4141 26.2227 78.7734 25.3555C79.1328 24.4883 79.6289 23.7422 80.2617 23.1172C80.8945 22.4922 81.6484 22.0078 82.5234 21.6641C83.3984 21.3125 84.3516 21.1367 85.3828 21.1367C85.8828 21.1367 86.3945 21.1719 86.918 21.2422C87.4414 21.3125 87.9492 21.4258 88.4414 21.582C88.9336 21.7305 89.3984 21.9258 89.8359 22.168C90.2734 22.4102 90.6523 22.7109 90.9727 23.0703C91.3008 23.4219 91.5586 23.832 91.7461 24.3008C91.9414 24.7695 92.0391 25.3047 92.0391 25.9062Z" fill="white"/>
<path d="M55.4355 85H36.3682V80.5322H41.0557V54.3115H36.3682V49.8438H50.748V80.5322H55.4355V85ZM91.8125 60.415C91.8125 61.8636 91.6172 63.1169 91.2266 64.1748C90.8359 65.2165 90.307 66.1117 89.6396 66.8604C88.9723 67.609 88.1829 68.2438 87.2715 68.7646C86.3763 69.2692 85.416 69.7168 84.3906 70.1074C83.3652 70.498 82.2992 70.848 81.1924 71.1572C80.1019 71.4665 79.0195 71.792 77.9453 72.1338C76.8711 72.4756 75.8376 72.8662 74.8447 73.3057C73.8519 73.7451 72.9567 74.2904 72.1592 74.9414C71.3617 75.5762 70.6781 76.3493 70.1084 77.2607C69.5387 78.1559 69.1481 79.2383 68.9365 80.5078H91.8125V85H58.5117C58.8698 82.7539 59.3825 80.8171 60.0498 79.1895C60.7171 77.5456 61.4902 76.1377 62.3691 74.9658C63.248 73.7939 64.2002 72.8174 65.2256 72.0361C66.2673 71.2386 67.3333 70.5713 68.4238 70.0342C69.5143 69.4808 70.613 69.0251 71.7197 68.667C72.8265 68.2926 73.8926 67.9346 74.918 67.5928C75.9434 67.251 76.8955 66.8929 77.7744 66.5186C78.6696 66.1279 79.4427 65.6478 80.0938 65.0781C80.7611 64.5085 81.2819 63.8167 81.6562 63.0029C82.0306 62.1729 82.2178 61.1475 82.2178 59.9268C82.2178 58.82 82.0306 57.8516 81.6562 57.0215C81.2819 56.1914 80.7692 55.4997 80.1182 54.9463C79.4671 54.3929 78.694 53.9779 77.7988 53.7012C76.9199 53.4245 75.9759 53.2861 74.9668 53.2861C73.9089 53.2861 72.9242 53.4814 72.0127 53.8721C71.1175 54.2627 70.3037 54.8161 69.5713 55.5322C68.8551 56.2321 68.2285 57.0785 67.6914 58.0713C67.1706 59.0641 66.7718 60.1709 66.4951 61.3916L59 57.2412C59.6673 55.874 60.6113 54.6859 61.832 53.6768C63.069 52.6676 64.4362 51.8294 65.9336 51.1621C67.431 50.4785 68.9854 49.974 70.5967 49.6484C72.2243 49.3066 73.7624 49.1357 75.2109 49.1357C76.6107 49.1357 77.9941 49.1927 79.3613 49.3066C80.7285 49.4206 82.0225 49.6322 83.2432 49.9414C84.4801 50.2507 85.6195 50.6738 86.6611 51.2109C87.7028 51.748 88.6061 52.4398 89.3711 53.2861C90.1361 54.1162 90.7301 55.1172 91.1533 56.2891C91.5928 57.4609 91.8125 58.8363 91.8125 60.415Z" fill="white"/>
</svg>
