<svg width="128" height="108" viewBox="0 0 128 108" fill="none" xmlns="http://www.w3.org/2000/svg">
<path d="M0 0H128V88C128 99.0457 119.046 108 108 108H20C8.95431 108 0 99.0457 0 88V0Z" fill="black"/>
<path d="M42.6211 29.7031C42.6211 30.7891 42.4805 31.8945 42.1992 33.0195C41.9258 34.1367 41.5391 35.2188 41.0391 36.2656C40.5469 37.3203 39.9531 38.3047 39.2578 39.2188C38.5625 40.1328 37.7969 40.9297 36.9609 41.6094L35.1562 40.5195C35.625 39.8789 36.0352 39.1523 36.3867 38.3398C36.7383 37.5273 37.0312 36.6836 37.2656 35.8086C37.5 34.9336 37.6758 34.0547 37.793 33.1719C37.9102 32.2891 37.9688 31.4492 37.9688 30.6523V18.125H42.6211V29.7031ZM45.4219 29.2109C45.4219 28.5938 45.4727 27.9531 45.5742 27.2891C45.6836 26.625 45.8359 25.9609 46.0312 25.2969C46.2344 24.6328 46.4766 23.9766 46.7578 23.3281C47.0391 22.6797 47.3555 22.0586 47.707 21.4648H50.6016C50.4062 22.0508 50.2305 22.6641 50.0742 23.3047C49.9258 23.9375 49.7969 24.5742 49.6875 25.2148C49.5859 25.8477 49.5039 26.4688 49.4414 27.0781C49.3867 27.6875 49.3594 28.2539 49.3594 28.7773C49.3594 29.082 49.3711 29.4102 49.3945 29.7617C49.4258 30.1055 49.4766 30.4531 49.5469 30.8047C49.6172 31.1484 49.7148 31.4805 49.8398 31.8008C49.9727 32.1211 50.1406 32.4062 50.3438 32.6562C50.5469 32.8984 50.793 33.0938 51.082 33.2422C51.3789 33.3828 51.7266 33.4531 52.125 33.4531C52.5156 33.4531 52.8633 33.3672 53.168 33.1953C53.4805 33.0156 53.7539 32.7852 53.9883 32.5039C54.2227 32.2148 54.4219 31.8867 54.5859 31.5195C54.75 31.1523 54.8828 30.7773 54.9844 30.3945C55.0938 30.0039 55.1719 29.625 55.2188 29.2578C55.2734 28.8828 55.3008 28.5469 55.3008 28.25V21.4648H59.2617V35H57.7383L55.9219 31.8477C55.6953 32.3711 55.418 32.8477 55.0898 33.2773C54.7695 33.6992 54.4023 34.0625 53.9883 34.3672C53.5742 34.6719 53.1133 34.9062 52.6055 35.0703C52.1055 35.2344 51.5625 35.3164 50.9766 35.3164C50.0391 35.3164 49.2227 35.1641 48.5273 34.8594C47.832 34.5547 47.2539 34.1328 46.793 33.5938C46.332 33.0547 45.9883 32.4141 45.7617 31.6719C45.5352 30.9219 45.4219 30.1016 45.4219 29.2109ZM76.4062 27.2422C76.4062 28.1562 76.293 29.1094 76.0664 30.1016C75.8477 31.0938 75.5391 32.0664 75.1406 33.0195C74.7422 33.9727 74.2656 34.8672 73.7109 35.7031C73.1562 36.5469 72.5469 37.2734 71.8828 37.8828L70.3945 37.0742C70.6055 36.6836 70.8047 36.2461 70.9922 35.7617C71.1797 35.2773 71.3477 34.7656 71.4961 34.2266C71.6523 33.6797 71.7891 33.1172 71.9062 32.5391C72.0312 31.9609 72.1328 31.3906 72.2109 30.8281C72.2969 30.2578 72.3594 29.707 72.3984 29.1758C72.4453 28.6367 72.4688 28.1367 72.4688 27.6758C72.4688 27.3711 72.457 27.0469 72.4336 26.7031C72.4102 26.3516 72.3594 26.0039 72.2812 25.6602C72.2109 25.3086 72.1133 24.9727 71.9883 24.6523C71.8633 24.332 71.6953 24.0508 71.4844 23.8086C71.2812 23.5664 71.0312 23.3711 70.7344 23.2227C70.4453 23.0742 70.1016 23 69.7031 23C69.3125 23 68.9648 23.0898 68.6602 23.2695C68.3555 23.4414 68.0859 23.6719 67.8516 23.9609C67.6172 24.2422 67.4141 24.5664 67.2422 24.9336C67.0781 25.3008 66.9414 25.6797 66.832 26.0703C66.7305 26.4531 66.6562 26.832 66.6094 27.207C66.5625 27.582 66.5391 27.918 66.5391 28.2148V35H62.5664V21.4648H64.0898L65.9062 24.6172C66.125 24.0938 66.3984 23.6172 66.7266 23.1875C67.0547 22.7578 67.4258 22.3906 67.8398 22.0859C68.2539 21.7812 68.7109 21.5469 69.2109 21.3828C69.7188 21.2188 70.2656 21.1367 70.8516 21.1367C71.7891 21.1367 72.6055 21.2891 73.3008 21.5938C73.9961 21.8984 74.5742 22.3242 75.0352 22.8711C75.4961 23.4102 75.8398 24.0547 76.0664 24.8047C76.293 25.5469 76.4062 26.3594 76.4062 27.2422ZM82.2773 28.5781C82.7617 28.6875 83.2461 28.7734 83.7305 28.8359C84.2148 28.8984 84.7031 28.9297 85.1953 28.9297C85.7109 28.9297 86.1875 28.8828 86.625 28.7891C87.0703 28.6875 87.4531 28.5234 87.7734 28.2969C88.1016 28.0625 88.3594 27.7539 88.5469 27.3711C88.7344 26.9883 88.8281 26.5117 88.8281 25.9414C88.8281 25.4805 88.7656 25.0586 88.6406 24.6758C88.5156 24.293 88.3281 23.9648 88.0781 23.6914C87.8359 23.418 87.5352 23.207 87.1758 23.0586C86.8164 22.9023 86.3984 22.8242 85.9219 22.8242C85.4766 22.8242 85.0742 22.9062 84.7148 23.0703C84.3633 23.2344 84.0508 23.457 83.7773 23.7383C83.5117 24.0117 83.2812 24.332 83.0859 24.6992C82.8984 25.0664 82.7422 25.4492 82.6172 25.8477C82.4922 26.2461 82.4023 26.6484 82.3477 27.0547C82.293 27.4609 82.2656 27.8438 82.2656 28.2031C82.2656 28.2656 82.2656 28.3281 82.2656 28.3906C82.2656 28.4531 82.2695 28.5156 82.2773 28.5781ZM92.0391 25.9062C92.0391 26.4609 91.9492 26.957 91.7695 27.3945C91.5898 27.8242 91.3438 28.2031 91.0312 28.5312C90.7266 28.8594 90.3711 29.1367 89.9648 29.3633C89.5586 29.5898 89.125 29.7773 88.6641 29.9258C88.2031 30.0664 87.7266 30.168 87.2344 30.2305C86.75 30.293 86.2773 30.3242 85.8164 30.3242C85.2305 30.3242 84.6523 30.2852 84.082 30.207C83.5117 30.1211 82.9492 29.9883 82.3945 29.8086C82.4805 30.3242 82.6172 30.8164 82.8047 31.2852C82.9922 31.7461 83.2422 32.1523 83.5547 32.5039C83.8672 32.8477 84.25 33.1211 84.7031 33.3242C85.1641 33.5273 85.707 33.6289 86.332 33.6289C86.7461 33.6289 87.1406 33.5664 87.5156 33.4414C87.8906 33.3164 88.2344 33.1406 88.5469 32.9141C88.8594 32.6875 89.1328 32.418 89.3672 32.1055C89.6094 31.793 89.8047 31.4453 89.9531 31.0625L91.6641 31.6953C91.4062 32.3125 91.0508 32.8477 90.5977 33.3008C90.1523 33.7461 89.6445 34.1172 89.0742 34.4141C88.5117 34.7031 87.9102 34.918 87.2695 35.0586C86.6367 35.1992 86.0078 35.2695 85.3828 35.2695C84.3516 35.2695 83.3984 35.0977 82.5234 34.7539C81.6484 34.4023 80.8945 33.9141 80.2617 33.2891C79.6289 32.6641 79.1328 31.918 78.7734 31.0508C78.4141 30.1836 78.2344 29.2344 78.2344 28.2031C78.2344 27.1719 78.4141 26.2227 78.7734 25.3555C79.1328 24.4883 79.6289 23.7422 80.2617 23.1172C80.8945 22.4922 81.6484 22.0078 82.5234 21.6641C83.3984 21.3125 84.3516 21.1367 85.3828 21.1367C85.8828 21.1367 86.3945 21.1719 86.918 21.2422C87.4414 21.3125 87.9492 21.4258 88.4414 21.582C88.9336 21.7305 89.3984 21.9258 89.8359 22.168C90.2734 22.4102 90.6523 22.7109 90.9727 23.0703C91.3008 23.4219 91.5586 23.832 91.7461 24.3008C91.9414 24.7695 92.0391 25.3047 92.0391 25.9062Z" fill="white"/>
<path d="M55.4355 85H36.3682V80.5322H41.0557V54.3115H36.3682V49.8438H50.748V80.5322H55.4355V85ZM93.7168 73.4766C93.7168 75.6738 93.2448 77.5456 92.3008 79.0918C91.3568 80.638 90.0791 81.8994 88.4678 82.876C86.8564 83.8525 84.9847 84.5687 82.8525 85.0244C80.7204 85.4801 78.4743 85.708 76.1143 85.708C74.8447 85.708 73.5345 85.5859 72.1836 85.3418C70.8327 85.0977 69.5143 84.707 68.2285 84.1699C66.9427 83.6165 65.722 82.9085 64.5664 82.0459C63.4271 81.167 62.4261 80.0928 61.5635 78.8232C60.7008 77.5537 60.0173 76.0726 59.5127 74.3799C59.0081 72.6872 58.7559 70.7585 58.7559 68.5938C58.7559 66.5755 58.9674 64.6956 59.3906 62.9541C59.8301 61.1963 60.4404 59.5931 61.2217 58.1445C62.0192 56.696 62.9714 55.4102 64.0781 54.2871C65.2012 53.1478 66.4463 52.1875 67.8135 51.4062C69.1807 50.625 70.6536 50.0309 72.2324 49.624C73.8275 49.2171 75.4876 49.0137 77.2129 49.0137C78.873 49.0137 80.403 49.1113 81.8027 49.3066C83.2188 49.4857 84.5452 49.8031 85.7822 50.2588C87.0355 50.7145 88.2236 51.3249 89.3467 52.0898C90.4697 52.8385 91.5846 53.7744 92.6914 54.8975L88.5166 59.8291C88.1748 58.9339 87.7109 58.0876 87.125 57.29C86.5553 56.4762 85.888 55.7682 85.123 55.166C84.3581 54.5475 83.5036 54.0592 82.5596 53.7012C81.6318 53.3431 80.6227 53.1641 79.5322 53.1641C78.0023 53.1641 76.5618 53.4163 75.2109 53.9209C73.8763 54.4092 72.6882 55.1579 71.6465 56.167C70.6211 57.1598 69.7747 58.4212 69.1074 59.9512C68.4564 61.4648 68.0495 63.2552 67.8867 65.3223C68.5866 64.4922 69.3597 63.8167 70.2061 63.2959C71.0524 62.7588 71.9232 62.3356 72.8184 62.0264C73.7135 61.7171 74.6087 61.5055 75.5039 61.3916C76.3991 61.2777 77.2536 61.2207 78.0674 61.2207C80.2646 61.2207 82.3154 61.4648 84.2197 61.9531C86.124 62.4251 87.776 63.1657 89.1758 64.1748C90.5918 65.1676 91.6986 66.4372 92.4961 67.9834C93.3099 69.5133 93.7168 71.3444 93.7168 73.4766ZM84.0977 73.4766C84.0977 72.0931 83.8779 70.8968 83.4385 69.8877C83.0153 68.8623 82.4375 68.016 81.7051 67.3486C80.9727 66.6813 80.1182 66.1849 79.1416 65.8594C78.1813 65.5339 77.1722 65.3711 76.1143 65.3711C75.0889 65.3711 74.1123 65.542 73.1846 65.8838C72.2568 66.2256 71.4349 66.7383 70.7188 67.4219C70.0026 68.0892 69.4329 68.9355 69.0098 69.9609C68.5866 70.9701 68.375 72.1419 68.375 73.4766C68.375 74.6647 68.5866 75.7552 69.0098 76.748C69.4492 77.7409 70.027 78.5954 70.7432 79.3115C71.4756 80.0277 72.3057 80.5892 73.2334 80.9961C74.1611 81.3867 75.1214 81.582 76.1143 81.582C77.1071 81.582 78.0837 81.403 79.0439 81.0449C80.0042 80.6706 80.8587 80.1416 81.6074 79.458C82.3561 78.7581 82.9583 77.9118 83.4141 76.9189C83.8698 75.9098 84.0977 74.7624 84.0977 73.4766Z" fill="white"/>
</svg>
