<svg width="128" height="108" viewBox="0 0 128 108" fill="none" xmlns="http://www.w3.org/2000/svg">
<path d="M0 0H128V88C128 99.0457 119.046 108 108 108H20C8.95431 108 0 99.0457 0 88V0Z" fill="black"/>
<path d="M42.6211 29.7031C42.6211 30.7891 42.4805 31.8945 42.1992 33.0195C41.9258 34.1367 41.5391 35.2188 41.0391 36.2656C40.5469 37.3203 39.9531 38.3047 39.2578 39.2188C38.5625 40.1328 37.7969 40.9297 36.9609 41.6094L35.1562 40.5195C35.625 39.8789 36.0352 39.1523 36.3867 38.3398C36.7383 37.5273 37.0312 36.6836 37.2656 35.8086C37.5 34.9336 37.6758 34.0547 37.793 33.1719C37.9102 32.2891 37.9688 31.4492 37.9688 30.6523V18.125H42.6211V29.7031ZM45.4219 29.2109C45.4219 28.5938 45.4727 27.9531 45.5742 27.2891C45.6836 26.625 45.8359 25.9609 46.0312 25.2969C46.2344 24.6328 46.4766 23.9766 46.7578 23.3281C47.0391 22.6797 47.3555 22.0586 47.707 21.4648H50.6016C50.4062 22.0508 50.2305 22.6641 50.0742 23.3047C49.9258 23.9375 49.7969 24.5742 49.6875 25.2148C49.5859 25.8477 49.5039 26.4688 49.4414 27.0781C49.3867 27.6875 49.3594 28.2539 49.3594 28.7773C49.3594 29.082 49.3711 29.4102 49.3945 29.7617C49.4258 30.1055 49.4766 30.4531 49.5469 30.8047C49.6172 31.1484 49.7148 31.4805 49.8398 31.8008C49.9727 32.1211 50.1406 32.4062 50.3438 32.6562C50.5469 32.8984 50.793 33.0938 51.082 33.2422C51.3789 33.3828 51.7266 33.4531 52.125 33.4531C52.5156 33.4531 52.8633 33.3672 53.168 33.1953C53.4805 33.0156 53.7539 32.7852 53.9883 32.5039C54.2227 32.2148 54.4219 31.8867 54.5859 31.5195C54.75 31.1523 54.8828 30.7773 54.9844 30.3945C55.0938 30.0039 55.1719 29.625 55.2188 29.2578C55.2734 28.8828 55.3008 28.5469 55.3008 28.25V21.4648H59.2617V35H57.7383L55.9219 31.8477C55.6953 32.3711 55.418 32.8477 55.0898 33.2773C54.7695 33.6992 54.4023 34.0625 53.9883 34.3672C53.5742 34.6719 53.1133 34.9062 52.6055 35.0703C52.1055 35.2344 51.5625 35.3164 50.9766 35.3164C50.0391 35.3164 49.2227 35.1641 48.5273 34.8594C47.832 34.5547 47.2539 34.1328 46.793 33.5938C46.332 33.0547 45.9883 32.4141 45.7617 31.6719C45.5352 30.9219 45.4219 30.1016 45.4219 29.2109ZM76.4062 27.2422C76.4062 28.1562 76.293 29.1094 76.0664 30.1016C75.8477 31.0938 75.5391 32.0664 75.1406 33.0195C74.7422 33.9727 74.2656 34.8672 73.7109 35.7031C73.1562 36.5469 72.5469 37.2734 71.8828 37.8828L70.3945 37.0742C70.6055 36.6836 70.8047 36.2461 70.9922 35.7617C71.1797 35.2773 71.3477 34.7656 71.4961 34.2266C71.6523 33.6797 71.7891 33.1172 71.9062 32.5391C72.0312 31.9609 72.1328 31.3906 72.2109 30.8281C72.2969 30.2578 72.3594 29.707 72.3984 29.1758C72.4453 28.6367 72.4688 28.1367 72.4688 27.6758C72.4688 27.3711 72.457 27.0469 72.4336 26.7031C72.4102 26.3516 72.3594 26.0039 72.2812 25.6602C72.2109 25.3086 72.1133 24.9727 71.9883 24.6523C71.8633 24.332 71.6953 24.0508 71.4844 23.8086C71.2812 23.5664 71.0312 23.3711 70.7344 23.2227C70.4453 23.0742 70.1016 23 69.7031 23C69.3125 23 68.9648 23.0898 68.6602 23.2695C68.3555 23.4414 68.0859 23.6719 67.8516 23.9609C67.6172 24.2422 67.4141 24.5664 67.2422 24.9336C67.0781 25.3008 66.9414 25.6797 66.832 26.0703C66.7305 26.4531 66.6562 26.832 66.6094 27.207C66.5625 27.582 66.5391 27.918 66.5391 28.2148V35H62.5664V21.4648H64.0898L65.9062 24.6172C66.125 24.0938 66.3984 23.6172 66.7266 23.1875C67.0547 22.7578 67.4258 22.3906 67.8398 22.0859C68.2539 21.7812 68.7109 21.5469 69.2109 21.3828C69.7188 21.2188 70.2656 21.1367 70.8516 21.1367C71.7891 21.1367 72.6055 21.2891 73.3008 21.5938C73.9961 21.8984 74.5742 22.3242 75.0352 22.8711C75.4961 23.4102 75.8398 24.0547 76.0664 24.8047C76.293 25.5469 76.4062 26.3594 76.4062 27.2422ZM82.2773 28.5781C82.7617 28.6875 83.2461 28.7734 83.7305 28.8359C84.2148 28.8984 84.7031 28.9297 85.1953 28.9297C85.7109 28.9297 86.1875 28.8828 86.625 28.7891C87.0703 28.6875 87.4531 28.5234 87.7734 28.2969C88.1016 28.0625 88.3594 27.7539 88.5469 27.3711C88.7344 26.9883 88.8281 26.5117 88.8281 25.9414C88.8281 25.4805 88.7656 25.0586 88.6406 24.6758C88.5156 24.293 88.3281 23.9648 88.0781 23.6914C87.8359 23.418 87.5352 23.207 87.1758 23.0586C86.8164 22.9023 86.3984 22.8242 85.9219 22.8242C85.4766 22.8242 85.0742 22.9062 84.7148 23.0703C84.3633 23.2344 84.0508 23.457 83.7773 23.7383C83.5117 24.0117 83.2812 24.332 83.0859 24.6992C82.8984 25.0664 82.7422 25.4492 82.6172 25.8477C82.4922 26.2461 82.4023 26.6484 82.3477 27.0547C82.293 27.4609 82.2656 27.8438 82.2656 28.2031C82.2656 28.2656 82.2656 28.3281 82.2656 28.3906C82.2656 28.4531 82.2695 28.5156 82.2773 28.5781ZM92.0391 25.9062C92.0391 26.4609 91.9492 26.957 91.7695 27.3945C91.5898 27.8242 91.3438 28.2031 91.0312 28.5312C90.7266 28.8594 90.3711 29.1367 89.9648 29.3633C89.5586 29.5898 89.125 29.7773 88.6641 29.9258C88.2031 30.0664 87.7266 30.168 87.2344 30.2305C86.75 30.293 86.2773 30.3242 85.8164 30.3242C85.2305 30.3242 84.6523 30.2852 84.082 30.207C83.5117 30.1211 82.9492 29.9883 82.3945 29.8086C82.4805 30.3242 82.6172 30.8164 82.8047 31.2852C82.9922 31.7461 83.2422 32.1523 83.5547 32.5039C83.8672 32.8477 84.25 33.1211 84.7031 33.3242C85.1641 33.5273 85.707 33.6289 86.332 33.6289C86.7461 33.6289 87.1406 33.5664 87.5156 33.4414C87.8906 33.3164 88.2344 33.1406 88.5469 32.9141C88.8594 32.6875 89.1328 32.418 89.3672 32.1055C89.6094 31.793 89.8047 31.4453 89.9531 31.0625L91.6641 31.6953C91.4062 32.3125 91.0508 32.8477 90.5977 33.3008C90.1523 33.7461 89.6445 34.1172 89.0742 34.4141C88.5117 34.7031 87.9102 34.918 87.2695 35.0586C86.6367 35.1992 86.0078 35.2695 85.3828 35.2695C84.3516 35.2695 83.3984 35.0977 82.5234 34.7539C81.6484 34.4023 80.8945 33.9141 80.2617 33.2891C79.6289 32.6641 79.1328 31.918 78.7734 31.0508C78.4141 30.1836 78.2344 29.2344 78.2344 28.2031C78.2344 27.1719 78.4141 26.2227 78.7734 25.3555C79.1328 24.4883 79.6289 23.7422 80.2617 23.1172C80.8945 22.4922 81.6484 22.0078 82.5234 21.6641C83.3984 21.3125 84.3516 21.1367 85.3828 21.1367C85.8828 21.1367 86.3945 21.1719 86.918 21.2422C87.4414 21.3125 87.9492 21.4258 88.4414 21.582C88.9336 21.7305 89.3984 21.9258 89.8359 22.168C90.2734 22.4102 90.6523 22.7109 90.9727 23.0703C91.3008 23.4219 91.5586 23.832 91.7461 24.3008C91.9414 24.7695 92.0391 25.3047 92.0391 25.9062Z" fill="white"/>
<path d="M82.1094 66.1523C82.1094 69.1797 81.6292 71.8978 80.6689 74.3066C79.7249 76.7155 78.4229 78.7663 76.7627 80.459C75.1025 82.1517 73.1494 83.4538 70.9033 84.3652C68.6572 85.2604 66.2402 85.708 63.6523 85.708C61.9922 85.708 60.4541 85.6104 59.0381 85.415C57.6383 85.236 56.3118 84.9186 55.0586 84.4629C53.8216 84.0072 52.6335 83.4049 51.4941 82.6562C50.3711 81.9076 49.2562 80.9717 48.1494 79.8486L52.3486 74.8926C52.6904 75.7878 53.1462 76.6423 53.7158 77.4561C54.3018 78.2536 54.9772 78.9616 55.7422 79.5801C56.5072 80.1823 57.3535 80.6706 58.2812 81.0449C59.2253 81.403 60.2425 81.582 61.333 81.582C62.863 81.582 64.2952 81.3379 65.6299 80.8496C66.9808 80.3451 68.1689 79.5882 69.1943 78.5791C70.236 77.57 71.0824 76.3086 71.7334 74.7949C72.4007 73.265 72.8158 71.4665 72.9785 69.3994C72.2786 70.2295 71.5055 70.9131 70.6592 71.4502C69.8128 71.9873 68.9421 72.4105 68.0469 72.7197C67.1517 73.0127 66.2484 73.2161 65.3369 73.3301C64.4417 73.444 63.5954 73.501 62.7979 73.501C60.6006 73.501 58.5417 73.265 56.6211 72.793C54.7168 72.321 53.0648 71.5885 51.665 70.5957C50.2653 69.5866 49.1585 68.3171 48.3447 66.7871C47.5472 65.2409 47.1484 63.4017 47.1484 61.2695C47.1484 59.0723 47.6204 57.2005 48.5645 55.6543C49.5085 54.0918 50.7861 52.8223 52.3975 51.8457C54.0088 50.8691 55.8805 50.153 58.0127 49.6973C60.1449 49.2415 62.391 49.0137 64.751 49.0137C66.0205 49.0137 67.3307 49.1357 68.6816 49.3799C70.0326 49.624 71.3509 50.0228 72.6367 50.5762C73.9225 51.1133 75.1351 51.8213 76.2744 52.7002C77.43 53.5791 78.4391 54.6533 79.3018 55.9229C80.1644 57.1924 80.848 58.6735 81.3525 60.3662C81.8571 62.0589 82.1094 63.9876 82.1094 66.1523ZM72.4902 61.2695C72.4902 60.0814 72.2705 58.9909 71.8311 57.998C71.3916 57.0052 70.8138 56.1507 70.0977 55.4346C69.3815 54.7184 68.5514 54.165 67.6074 53.7744C66.6797 53.3675 65.7275 53.1641 64.751 53.1641C63.7419 53.1641 62.7572 53.3512 61.7969 53.7256C60.8529 54.0837 60.0065 54.6126 59.2578 55.3125C58.5091 55.9961 57.9069 56.8424 57.4512 57.8516C56.9954 58.8444 56.7676 59.9837 56.7676 61.2695C56.7676 62.6367 56.9792 63.833 57.4023 64.8584C57.8418 65.8675 58.4277 66.7139 59.1602 67.3975C59.8926 68.0648 60.7389 68.5612 61.6992 68.8867C62.6758 69.2122 63.693 69.375 64.751 69.375C65.7764 69.375 66.7529 69.2041 67.6807 68.8623C68.6084 68.5205 69.4303 68.016 70.1465 67.3486C70.8626 66.665 71.4323 65.8187 71.8555 64.8096C72.2786 63.8005 72.4902 62.6204 72.4902 61.2695Z" fill="white"/>
</svg>
