<?xml version="1.0" encoding="UTF-8"?>
<svg id="Layer_2" data-name="Layer 2" xmlns="http://www.w3.org/2000/svg" viewBox="0 0 906.35 330.35">
  <defs>
    <style>
      .cls-1 {
        fill: #54143c;
      }

      .cls-1, .cls-2, .cls-3, .cls-4, .cls-5, .cls-6, .cls-7, .cls-8, .cls-9, .cls-10, .cls-11, .cls-12, .cls-13, .cls-14, .cls-15, .cls-16, .cls-17, .cls-18, .cls-19, .cls-20, .cls-21, .cls-22, .cls-23 {
        stroke-width: 0px;
      }

      .cls-2 {
        fill: #751d3b;
      }

      .cls-3 {
        fill: #c09fc9;
      }

      .cls-4 {
        fill: #43103d;
      }

      .cls-5 {
        fill: #c63239;
      }

      .cls-6 {
        fill: #b62e39;
      }

      .cls-7 {
        fill: #5c163c;
      }

      .cls-8 {
        fill: #ae2b39;
      }

      .cls-9 {
        fill: #95253a;
      }

      .cls-10 {
        fill: #a6293a;
      }

      .cls-11 {
        fill: #3b0e3d;
      }

      .cls-12 {
        fill: #8d233a;
      }

      .cls-13 {
        fill: #cf3438;
      }

      .cls-14 {
        fill: #6c1b3b;
      }

      .cls-15 {
        fill: #d73638;
      }

      .cls-16 {
        fill: #7d1f3b;
      }

      .cls-17 {
        fill: #330c3d;
      }

      .cls-18 {
        fill: #df3838;
      }

      .cls-19 {
        fill: #85213b;
      }

      .cls-20 {
        fill: #4c123c;
      }

      .cls-21 {
        fill: #be3039;
      }

      .cls-22 {
        fill: #9d273a;
      }

      .cls-23 {
        fill: #64193c;
      }
    </style>
  </defs>
  <g id="Layer_1-2" data-name="Layer 1">
    <g>
      <g>
        <path class="cls-3" d="M701.08,144.96v35.06q-15.73.77-31.45,1.55-.26-18.82-.52-37.64l31.97,1.03Z"/>
        <path class="cls-3" d="M733.05,179.5c-5.3-.04-10.9,1.38-16.5,1.03-5.68-.35-11.44,1.19-13.41-1.55v-34.03c.75-1.05,22.5-.61,25.78-.52,8.68.24,6.85,1.02,7.22,1.03-5.95,3.23-1.97,20.97-3.09,34.03Z"/>
        <path class="cls-3" d="M733.05,179.5c1.13-13.06-2.86-30.8,3.09-34.03,4.78.16,2.91,2.05,3.09,2.06v3.09c-.72,6.63.51,13.04,1.03,19.59,0,.05-.18-.25,0,1.03.16,1.18-3.34,2.65,1.03,7.22-3.05,7.14-7.73,1.04-8.25,1.03Z"/>
        <path class="cls-3" d="M667.05,144.96v35.06q-14.18.77-28.36,1.55c-2.34-35.81-10.77-43.41,28.36-36.61Z"/>
        <path class="cls-3" d="M620.64,181.57c-2.14-.04-12.69.49-13.41-.52v-37.12q11.86-.26,23.72-.52c.8.41,11.34-.89,12.03.28.95,1.6-1.4,32.17-.69,37.62-.67.94-19.49.3-21.65.26Z"/>
        <path class="cls-3" d="M387.59,183.63c-4.47.13-9.93.57-14.44,1.03,2.38-19.39-6.03-9.26-7.22-18.56,4.68-1.37,5.03,2.99,6.19,3.09,1.84.17,17.53-23.54,15.47,14.44Z"/>
        <g>
          <path class="cls-3" d="M798.06,197.78c-6.81-11.18,23.92-7.13,28.83-6.93"/>
          <path class="cls-3" d="M864.01,197.04c-2.73.36-1.27,2.98-3.65,3.72-21.25-11.81-22.79-9.66-24.21-2.21-3.55-1.58-1.41,1.45-3.96-.43-.98-.72-3.7-3.62-6.43-4.64-5.02-1.88-1.46,2.42,1.12-2.63,1.33.05,1.55,2.42,4.64,2.06,1.17-.14,5.75-4.12,7.22-4.12,22.79-.05,20.49,5.83,21.66,6.19.76.23,1.78-3.05,2.06-3.09,4.17-.58,33.9,3.94,36.61,6.19,13.82,11.45-17.85-3.32-35.06-1.03Z"/>
          <g>
            <path class="cls-3" d="M799.56,192.91c-1.98-1.5-33.31,9.76-35.06,9.28-.66-.18-4.86-8.01-7.73-11.34-.96-1.11-2.59-5.26-3.61-6.19-2.48-2.26-10.16-4.41-11.86-6.19-4.37-4.57-.87-6.04-1.03-7.22l37.12,1.03c-10.65,8.56.77,21.2,8.25,7.22,2.44.76,9.02-2.83,11.34-2.06.07.02.09.26,1.03,1.03.73.6,2.5,12.08,13.41,0q-.26-3.61-.52-7.22c-14.82-1.41-12.19,1.04-12.89,1.03-6.6-.13-13.02-.85-19.59-1.03-6.14-.17-12.28-1.02-18.56-1.03,1.43-8.98,33.86-7.92,34.03-15.47,4.79.21,9.66-.3,14.44,0,1.56.1,2.84-.05,4.12,0,1.72.06,3.44-.05,5.16,0,7.44.2,15.09,3.02,22.69,2.06,3.82-.48,7.16-1.43,9.28-5.67-10.86-14.52-7.37-3.17-13.41-.52-6.46,2.83-18.23-.33-10.31-1.55-8.94-1.2-4.35-8.56-15.98-6.7-1.03.16.5,5.78-19.08,1.03-.66-.16,1.78-3.13-11.86-4.12-2.82,18.19-11.75,9.48-37.64,11.34h-2.06v-3.09c7.56.4,9.81-1.62,14.44-6.19,1.98-1.96,10.93-15.82,11.34-17.53q16.76,4.12,33.51,8.25c9.01-8.99-3.19-3.06,5.06-2.72,2.06.08,3.6-13.97-.94,3.75q13.92,2.06,27.84,4.12c6.08-1.5-4.58-5.33,4.2-4.72,5.79.4-1.04,1.82,1.98,3.69,51.3,6.47,10.78-4.46,22.02-10.97,1.82-1.05,5.62,7.66,7.66,6.77,2.44-1.07-6.49-3.28.75,3.17,1.59,3.45,24.02-1.63,33-5.16,1.29,8.11,6.8,15.1,6.19,20.11-.12.97-4.76,7.73-5.16,9.28-3.85,15.16,15.01,16.14-2.06,38.67-2.71-2.25-32.44-6.77-36.61-6.19-.28.04-1.3,3.33-2.06,3.09-1.16-.36,1.14-6.24-21.66-6.19-1.46,0-6.05,3.99-7.22,4.12-3.09.36-3.31-2.01-4.64-2.06"/>
            <g>
              <path class="cls-3" d="M794.4,197.52c-.18.05-3.53,1.73-7.22,2.61-17.28,4.13-27.65,13.02-30.42-9.28,2.87,3.33,7.07,11.16,7.73,11.34,1.75.48,33.08-10.78,35.06-9.28,3.01,5.38-.69,3.47-5.16,4.61Z"/>
              <path class="cls-3" d="M900.1,130.01c-8.98,3.52-31.41,8.61-33,5.16q16.24-4.64,32.48-9.28c3.67.52.48,3.92.52,4.12Z"/>
              <path class="cls-3" d="M765.01,123.82c-.42,1.71-9.36,15.57-11.34,17.53-3.17-4.45,7.81-11.57,8.25-20.11,2.38-2.98,4.21-2.01,3.09,2.58Z"/>
              <path class="cls-3" d="M790.79,143.41c-.42,2.85-7.68,9.07-8.77,9.28-1.92.38-37.27.42-39.19,0-.33-.07-1.6-1.42-1.55-2.06,25.89-1.87,34.82,6.85,37.64-11.34,13.64.99,11.2,3.96,11.86,4.12Z"/>
              <path class="cls-3" d="M867.11,178.99c-6.97,17.22-23.02-9.11-3.61-5.67q1.8,2.84,3.61,5.67Z"/>
              <path class="cls-3" d="M839.26,175.89c-10.73,20.98-21.15-10.32-2.58-3.61l2.58,3.61Z"/>
              <path class="cls-3" d="M777.39,172.29h1.03c1.85,1.83,4.92,6.5,7.22,7.22-7.48,13.98-18.9,1.35-8.25-7.22Z"/>
              <path class="cls-3" d="M840.29,156.82q-2.06-3.09-4.12-6.19c6.04-2.65,2.55-14.01,13.41.52-2.12,4.24-5.46,5.19-9.28,5.67Z"/>
              <path class="cls-3" d="M796.98,177.44c-2.32-.77-8.9,2.83-11.34,2.06-2.3-.72-5.37-5.39-7.22-7.22v-1.03c6.58.18,12.99.9,19.59,1.03l-1.03,5.16Z"/>
              <path class="cls-3" d="M877.42,147.02q-1.29,3.35-2.58,6.7c-15.88,2.11-9.73-13.32,2.58-6.7Z"/>
              <path class="cls-3" d="M778.42,172.29h-1.03l-37.12-1.03c-.18-1.28,0-.98,0-1.03,6.53,0,13.06-.01,19.59,0,6.28.01,12.42.86,18.56,1.03v1.03Z"/>
              <g>
                <path class="cls-3" d="M798.01,178.47c-2.48-4.17,11.07-2.82,13.41,0-10.91,12.08-12.67.6-13.41,0Z"/>
                <path class="cls-3" d="M811.42,178.47c-2.34-2.82-15.89-4.17-13.41,0-.94-.77-.96-1.01-1.03-1.03l1.03-5.16c.7.01-1.93-2.45,12.89-1.03q.26,3.61.52,7.22Z"/>
              </g>
            </g>
          </g>
          <g>
            <path class="cls-3" d="M817.61,154.75c8.21-18.64-21.36-9.57-5.16,0-1.28-.05-2.56.1-4.12,0h-14.44c-.17,7.54-32.6,6.49-34.03,15.47-6.53-.01-13.06,0-19.59,0-.52-6.55-1.75-12.96-1.03-19.59h2.06c-.05.65,1.22,1.99,1.55,2.06,1.91.42,37.26.38,39.19,0,1.09-.21,8.35-6.43,8.77-9.28,19.58,4.75,18.05-.87,19.08-1.03,11.64-1.86,7.05,5.5,15.98,6.7-7.92,1.22,3.85,4.38,10.31,1.55q2.06,3.09,4.12,6.19c-7.6.96-15.25-1.86-22.69-2.06Z"/>
            <path class="cls-3" d="M817.61,154.75c-1.72-.05-3.44.06-5.16,0-16.2-9.57,13.36-18.64,5.16,0Z"/>
            <path class="cls-3" d="M793.89,154.75h14.44c-4.78-.3-9.65.21-14.44,0Z"/>
            <path class="cls-3" d="M772.23,155.27c1.35,2.33-28.4,1.79-30.94,1.03,3.8-.07,29.85-2.91,30.94-1.03Z"/>
          </g>
        </g>
        <path class="cls-3" d="M522.68,142.9c-5.67,39.66,11.56,42.99-21.14,40.73-1.91-.85-5.7-42.69,7.22-26.81,2.36-9.4-11.88,3.15-8.77-14.95q11.34.52,22.69,1.03Z"/>
        <path class="cls-3" d="M498.96,149.08c.38,3.3-2.37,25.72-1.03,34.03-29.14,4.65-17.36-4.47-19.59-41.25,17.96-.59,19.36-3.75,20.62,7.22Z"/>
        <g>
          <path class="cls-3" d="M438.12,183.63c-5.45.3-11.13-.16-16.5,0,.69-8.29-4.01-28.13,10.31-21.14-8.92,3.15,6.17,4.08.52-2.58-15.86-4.23-12.84,12.6-12.89,23.72-4.63.15-8.96-.1-13.41,0,.6-8.84-3.78-27.68,10.31-22.17.87-2.72-15.5-10.56-12.37,22.17-5.27.12-10.35-.09-15.47,0,2.19-9.43-.67-32.86-14.44-19.59-1.64-.42-1.96-2.53-4.12-2.06v-1.03c5.48-3.92,3.19-13.74,2.06-20.62,8.28,1.65,90.62-.43,110.47,1.46-.76,35.9,92.15,46.73-25.4,41.85"/>
          <g>
            <path class="cls-3" d="M421.62,183.63c-.69.02-1.38-.02-2.06,0,.05-11.12-2.97-27.95,12.89-23.72,5.66,6.66-9.44,5.73-.52,2.58-14.32-6.98-9.62,12.85-10.31,21.14Z"/>
            <path class="cls-3" d="M406.15,183.63c-.69.01-1.38-.02-2.06,0-3.13-32.73,13.25-24.89,12.37-22.17-14.09-5.51-9.71,13.33-10.31,22.17Z"/>
            <path class="cls-3" d="M388.62,183.63c-.37,0-.81,0-1.03,0,2.06-37.97-13.63-14.27-15.47-14.44.03-1.31,1.36-4.48,2.06-5.16,13.76-13.26,16.63,10.17,14.44,19.59Z"/>
            <path class="cls-3" d="M439.15,183.63c-.97.06-.98,0-1.03,0,1.52-25.86-6.1-33.31,11.34-28.36-15.77-1.17-8.97,6.4-10.31,28.36Z"/>
            <path class="cls-3" d="M405.12,153.21c-2.43,15.23-20.31,4.18-15.98,2.58,5.29,5.34,13.54,6.49,13.92-2.58h2.06Z"/>
          </g>
        </g>
        <path class="cls-3" d="M372.12,169.19c-1.16-.11-1.51-4.46-6.19-3.09.22-.19,2.62-3.8,4.12-4.12,2.16-.46,2.48,1.65,4.12,2.06-.7.67-2.03,3.85-2.06,5.16Z"/>
        <g>
          <path class="cls-3" d="M109.15,293.97c2.1-1.75,2.42.32,3.09,0-1.44,4.11,11.01,3.66,12.89,3.09,2.36-.72,4.04-8.52,4.64-11.34.2-.96-.12-2.1,0-3.09,1.71.45,2.62.95,3.09,1.03,8.82,21.83-21,26.04-23.72,10.31Z"/>
          <path class="cls-3" d="M129.78,285.72c-11,.9-16.46,7.73-17.53,8.25-.67.32-.99-1.75-3.09,0-.11-.65,0-1.39,0-2.06.07-19.83,19.19-9.66,20.62-9.28-.12,1,.2,2.13,0,3.09Z"/>
          <path class="cls-3" d="M112.25,293.97c1.07-.52,6.53-7.34,17.53-8.25-.6,2.82-2.28,10.63-4.64,11.34-1.88.57-14.33,1.02-12.89-3.09Z"/>
          <g>
            <path class="cls-3" d="M66.87,289.85v-1.03q.77-1.55,1.55-3.09c10.1,12.33,21.13,5.9,19.08-9.28h1.03c10.12,12.33-3.74,24.88-17.02,18.56-1.89-.9-3.56-4.75-4.64-5.16Z"/>
            <g>
              <path class="cls-3" d="M59.66,258.91c6.03-5.77,7.8-12.86,1.03-18.56-7.43-6.26-17.07-2.9-19.59,5.16-1.99,6.35.06,7.98,3.09,13.41-1.44-.26-.41,2.43-2.58,2.06-7.84-1.32-14.28-34.57,11.34-30.94,15.65,2.22,18.89,24.08,6.7,28.87Z"/>
              <path class="cls-3" d="M59.66,258.91c-9.18,3.61-9.3,1.12-15.47,0-3.03-5.43-5.08-7.05-3.09-13.41l2.06,2.06v3.09c2.02,6.52,18.08,10.31,17.53-10.31,6.77,5.7,5,12.79-1.03,18.56Z"/>
              <path class="cls-3" d="M43.16,250.66c24.18,6.97,13.14-19.86,0-3.09l-2.06-2.06c2.52-8.06,12.16-11.42,19.59-5.16.55,20.63-15.51,16.83-17.53,10.31Z"/>
              <path class="cls-3" d="M43.16,250.66v-3.09c13.14-16.77,24.18,10.06,0,3.09Z"/>
            </g>
          </g>
          <g>
            <path class="cls-3" d="M309.21,174.35h-17.53c-.24-8.9-.09-17.91,0-26.81,2.02,3.5,8.99.13,18.56,3.09-.01,7.9-1,15.97-1.03,23.72Z"/>
            <path class="cls-3" d="M310.24,187.75c-6.3-.8-13.39,3.65-18.56-1.03-.31-4.06.11-8.28,0-12.37h17.53c0,1.36,1.75,7.56,1.03,13.41Z"/>
            <path class="cls-3" d="M310.24,150.63c-9.57-2.96-16.54.4-18.56-3.09.07-6.77-1.27-10.76-1.03-12.37,4.77,2.02,19.16-.84,20.62,3.09-1.69.36-1.02,6.64-1.03,12.37Z"/>
            <g>
              <path class="cls-3" d="M291.68,186.72c5.17,4.68,12.26.23,18.56,1.03q1.03-.26,2.06-.52c-1.62-8.66-.18-46.69-1.03-48.98-1.46-3.93-15.85-1.07-20.62-3.09-3.47-6.98,32.18-4.3,33-2.58-1.02,16.3.71,32.67,0,48.98-.04.96,1.08,1.1,1.03,2.06-.98,19.17-4.92,10.68-31.45,12.37-2.61-1.79-1.26-5.6-1.55-9.28Z"/>
              <path class="cls-3" d="M320.56,135.68c-3.86,5.58,3.58,60.06-5.67,53.11.45-18.73-4.79-62.36,5.67-53.11Z"/>
              <path class="cls-3" d="M310.24,187.75c.72-5.84-1.04-12.05-1.03-13.41.03-7.75,1.02-15.82,1.03-23.72,0-5.73-.66-12.01,1.03-12.37.85,2.3-.59,40.32,1.03,48.98q-1.03.26-2.06.52Z"/>
            </g>
          </g>
          <g>
            <path class="cls-3" d="M87.5,256.85c-3.79-14.39,7.93-20.19,19.59-13.41.14,16.06-4.07,22.23-19.59,13.41Z"/>
            <path class="cls-3" d="M105.03,249.11q-.77,2.32-1.55,4.64c-26.27,2.9-.75-12.51,1.55-4.64Z"/>
          </g>
          <g>
            <path class="cls-3" d="M130.81,260.97c1.65-13.5,16.96-14.26,21.66-7.22-3.44,16.4-10.97,22.46-21.66,7.22Z"/>
            <path class="cls-3" d="M146.28,255.3q-2.32,3.35-4.64,6.7c-18.4-1.24.18-11.32,4.64-6.7Z"/>
          </g>
          <g>
            <g>
              <path class="cls-3" d="M344.27,180.54c-.23-.15,1.56-1.31-4.12-3.09-1.69-.53-4.06-2.64-2.06,1.03-.53.15-1.4-.07-2.06,0-5.25-14.37,1.05-14.12,5.16-14.44,1.52-.12,7.64-.34,8.25.52-1.11,6.49,4.05,18.28-5.16,15.98Z"/>
              <path class="cls-3" d="M338.09,178.47c-2-3.67.37-1.56,2.06-1.03-.86.02-1.08.75-2.06,1.03Z"/>
              <path class="cls-3" d="M344.27,166.61l-.52,2.58c-7.39-1.19-1.28-6.44.52-2.58Z"/>
            </g>
            <g>
              <path class="cls-3" d="M362.84,168.16c-5.37,25.09-4.81,11.81-11.86,11.34-1.78-.12-.42,5.12-6.7,1.03,9.2,2.3,4.05-9.5,5.16-15.98-.61-.86-6.73-.63-8.25-.52.14-.5,1.92-2.03,2.06-2.06.55-.11,4.9,1.07,5.67,0,1.27-1.76.78-13.48,3.09,0q3.09-1.03,6.19-2.06c1.58,6.65,2.7-28.74,3.61-.52q1.55,1.29,3.09,2.58c-2.98,5.05-1.89,5.4-2.06,6.19Z"/>
              <path class="cls-3" d="M365.93,166.1c-.8.71-2.1,1.54-3.09,2.06.17-.79-.92-1.14,2.06-6.19.95,1.22,4.67-.68,5.16-1.03v1.03c-1.5.32-3.91,3.93-4.12,4.12Z"/>
              <path class="cls-3" d="M359.74,164.55v15.47c-10.47,4.95-12.88-22.43,0-15.47Z"/>
            </g>
          </g>
          <g>
            <path class="cls-3" d="M66.87,288.81c-2.93-11.7,11.89-18,20.62-12.37,2.05,15.18-8.97,21.61-19.08,9.28q-.77,1.55-1.55,3.09Z"/>
            <path class="cls-3" d="M84.41,280.05c.89,9.83-6.15,4.59-5.67,9.8-20.03-5.98,3.33-17.03,5.67-9.8Z"/>
          </g>
          <path class="cls-3" d="M395.32,275.41c-41.79-2.01-80.11-51.02-31.97-77.34,3.32-1.82,10.92,5.47,3.61-12.89.76-1.05,4.71-.36,6.19-.52,2.38-19.39-6.03-9.26-7.22-18.56-.8.71-2.1,1.54-3.09,2.06-5.37,25.09-4.81,11.81-11.86,11.34-1.78-.12-.42,5.12-6.7,1.03-.23-.15,1.56-1.31-4.12-3.09-.86.02-1.08.75-2.06,1.03-.53.15-1.4-.07-2.06,0h0c-5.25-14.37,1.05-14.12,5.16-14.44.14-.5,1.92-2.03,2.06-2.06h0c.55-.11,4.9,1.07,5.67,0,1.27-1.76.78-13.48,3.09,0q3.09-1.03,6.19-2.06c1.58,6.65,2.7-28.74,3.61-.52q1.55,1.29,3.09,2.58c.95,1.22,4.67-.68,5.16-1.03,5.48-3.92,3.19-13.74,2.06-20.62-11.36-2.26-5.97-8.59-1.03-18.05-55.51-17.86-17.12-86.94,53.62-69.09-70.68-91.79-160.52-.07-173.76,4.64-10.73,3.81-19.28,2.32-28.87-3.09-10.05-5.68-39.56-42.33-78.89-51.56-6.21-1.46-15.34-2.86-21.66-3.09-2.72-.1-5.53-.09-8.25,0-29.11.95-57.28,14-77.34,35.06-3.85,4.05-8.16,9.79-11.34,14.44-6.52,9.52-12.09,19.87-15.47,30.94-.01.13-.66,1.18-.88,3.52-.26,2.88-5.32,27.14-7.37,54.74-2.78,37.35,1.06,75.17,11.34,111.37l10.67,24.21c7.83,13.34,17.2,27.66,22.33,31.99,3.61,3.04,7.36,5.73,11.34,8.25,21.06,13.31,37.86,16.88,62.9,15.47,1.7-.1,3.47.17,5.16,0,8.16-.8,23.16-5.06,30.94-8.25,29.58-12.14,67.94-59.04,79.92-60.84,15.49-2.33,44.48,25.89,59.81,34.03,46.66,24.79,95.64,21.78,128.39-22.17-.91-1.16-21.04,2.93-28.36,2.58ZM330.02,149.92c.37.27.71.49,1.04.69-.33-.2-.68-.42-1.04-.69-.68-.5-1.43-1.11-2.24-1.87-.18-1.73,12.76-3.76,3.98-3.7,8.78-.07-4.15,1.97-3.98,3.7.81.75,1.56,1.37,2.24,1.87ZM323.65,132.58c-1.02,16.3.71,32.67,0,48.98-.04.96,1.08,1.1,1.03,2.06-.98,19.17-4.92,10.68-31.45,12.37-2.61-1.79-1.26-5.6-1.55-9.28-.31-4.06.11-8.28,0-12.37-.24-8.9-.09-17.91,0-26.81.07-6.77-1.27-10.76-1.03-12.37-3.47-6.98,32.18-4.3,33-2.58ZM325.53,181.48c3.6-.16,4.39-.2,8.46-.38-4.07.18-4.86.22-8.46.38ZM333.94,151.69s-.06,0-.09-.01c.03,0,.06,0,.09.01ZM340.35,148.57c.1,0,.21,0,.32,0,.89.07,1.58.51,2.15,1.11-.57-.6-1.26-1.05-2.15-1.11-.11,0-.21,0-.32,0ZM349.95,149.6c-1.39,2.59-2.37,3.84-3.13,4.26.76-.42,1.74-1.67,3.13-4.26h0ZM345.01,153.1c-.64-.94-1.25-2.41-2.19-3.42.95,1.01,1.55,2.48,2.19,3.42ZM340.66,182.6h0c.32-1,.25-1.35-.05-1.45.3.1.37.45.05,1.45ZM340.48,181.12s.02,0,.04,0c-.01,0-.02,0-.04,0ZM338.43,181.14c-.23-.05-.46-.14-.69-.27.23.13.46.22.69.27ZM340.3,156.41c-.18.37-.29,1.17-.48,2.06-.06.3-.13.6-.22.91-.34,1.22-.89,2.41-1.99,2.77-.28.09-.58.13-.93.1-.35-.03-.74-.11-1.17-.28-.14-.52-.25-1.02-.34-1.51.09.48.2.98.34,1.51.43.17.82.25,1.17.28.35.03.66-.01.93-.1,1.1-.36,1.65-1.55,1.99-2.77.08-.3.16-.61.22-.91.19-.89.3-1.69.48-2.06.06-.12.12-.2.2-.22-.08.02-.14.09-.2.22ZM340.69,156.27c.07.05.14.13.22.24-.08-.11-.15-.19-.22-.24ZM341.16,156.91c.11.2.23.46.37.75-.13-.29-.26-.55-.37-.75ZM341.86,158.43c.09.21.18.44.28.68-.1-.25-.19-.47-.28-.68ZM343.24,156.3c.68-1.43.7-2.63.3-3.54-.13-.3-.31-.58-.52-.81-.64-.71-1.61-1.12-2.66-1.16,1.05.04,2.02.45,2.66,1.16.21.24.39.51.52.81.39.91.38,2.11-.3,3.54.76.97,2.32.75,3.9-.04-1.58.78-3.14,1-3.9.04ZM347.19,156.24c.25-.13.5-.27.75-.42-.25.15-.5.29-.75.42ZM110.8,254.18c.07-.56.11-1.13.1-1.71,0,.57-.03,1.14-.1,1.71ZM110.86,251.62c-.04-.57-.13-1.15-.25-1.72-.1-.48-.24-.95-.4-1.42.16.47.3.95.4,1.42.12.57.21,1.15.25,1.72ZM107.09,243.44c1.35,1.38,2.31,2.91,2.93,4.51-.62-1.6-1.58-3.13-2.93-4.51.14,16.06-4.07,22.23-19.59,13.41h0c-3.79-14.39,7.93-20.19,19.59-13.41ZM90.21,262.3c-.78-1-1.38-1.86-1.88-3.02.51,1.16,1.1,2.02,1.88,3.02ZM71.51,295c-1.89-.9-3.56-4.75-4.64-5.16v-1.03c-2.93-11.7,11.89-18,20.62-12.37h1.03c10.12,12.33-3.74,24.88-17.02,18.56ZM107.1,261.66c.41-.4.79-.83,1.14-1.27-.35.45-.73.87-1.14,1.27ZM109.15,293.97c-.11-.65,0-1.39,0-2.06.07-19.83,19.19-9.66,20.62-9.28,1.71.45,2.62.95,3.09,1.03,8.82,21.83-21,26.04-23.72,10.31ZM133.18,270.1c-.45-.49-.84-1.03-1.17-1.61-.33-.58-.6-1.2-.81-1.87-.52-1.66-.65-3.56-.4-5.66,1.65-13.5,16.96-14.26,21.66-7.22h0c-3.44,16.4-10.97,22.46-21.66,7.22-.26,2.09-.12,4,.4,5.66.21.66.48,1.29.81,1.87.33.58.72,1.12,1.17,1.61,1.58,1.71,3.89,2.85,6.91,3.25.47.06,1.16.11,1.9.13-.74-.02-1.43-.07-1.9-.13-3.02-.4-5.33-1.53-6.91-3.25ZM148.7,271.96c-1.05.66-2.21,1.15-3.45,1.39-.12.02-.27.04-.42.06.16-.02.3-.04.42-.06,1.24-.24,2.4-.73,3.45-1.39,3.58-2.26,5.95-6.63,6.08-10.98.03-1.02-.06-2.05-.3-3.04-.12-.5-.27-.99-.45-1.46.19.48.34.97.45,1.46.23.99.33,2.02.3,3.04-.13,4.35-2.5,8.73-6.08,10.98Z"/>
        </g>
        <g>
          <path class="cls-3" d="M589.71,181.57c-4.1.21-8.26-.13-12.37,0v-38.16c2.74.1,5.52-.17,8.25,0,2.97.18,18.79-.61,19.59.52v37.12c-.76,1.08-13.05.39-15.47.52Z"/>
          <path class="cls-3" d="M577.33,181.57c-.99.03-1.09,1.03-2.06,1.03v-39.19c.69,0,1.38-.03,2.06,0v38.16Z"/>
          <g>
            <path class="cls-3" d="M593.83,163.52c2.58,7.94-15.6,4.15-4.64-2.58l4.64,2.58Z"/>
            <path class="cls-3" d="M591.77,163.52q-.77,1.8-1.55,3.61c-7.26-2.55-.22-5.89,1.55-3.61Z"/>
          </g>
        </g>
        <g>
          <path class="cls-3" d="M575.27,182.6c-3.35.02-25.03.54-25.78-.52q-.52-19.59-1.03-39.19c1.84-2.16,23,.47,26.81.52v39.19Z"/>
          <g>
            <path class="cls-3" d="M562.89,162.49v4.12c-10.48,6.1-10.55-10.48,0-4.12Z"/>
            <path class="cls-3" d="M561.86,164.55c-3.32,4.13-8.04-1.25-2.58-2.58q1.29,1.29,2.58,2.58Z"/>
          </g>
        </g>
        <g>
          <path class="cls-3" d="M547.43,143.93v38.16q-11.6.26-23.2.52-.26-19.85-.52-39.7l23.72,1.03Z"/>
          <g>
            <path class="cls-3" d="M537.11,164.55q-.77,1.8-1.55,3.61c-13.99,2.06-6.17-11.65,1.55-3.61Z"/>
            <path class="cls-3" d="M535.05,164.55c1.56,2.03-7.19,5.16-4.64-.52l4.64.52Z"/>
          </g>
        </g>
        <path class="cls-3" d="M832.91,197.48s-12.29,6.94-2.34,13.84,15.4-13.89,2.34-13.84Z"/>
        <path class="cls-3" d="M798.53,195.52s-12.29,6.94-2.34,13.84,15.4-13.89,2.34-13.84Z"/>
      </g>
      <path class="cls-3" d="M859.89,198.07s-12.29,6.94-2.34,13.84,15.4-13.89,2.34-13.84Z"/>
      <path class="cls-3" d="M803.92,129.82s12.29-6.94,2.34-13.84-15.4,13.89-2.34,13.84Z"/>
      <path class="cls-3" d="M835.46,134.41s12.29-6.94,2.34-13.84-15.4,13.89-2.34,13.84Z"/>
      <path class="cls-3" d="M863.29,134.54s12.29-6.94,2.34-13.84-15.4,13.89-2.34,13.84Z"/>
    </g>
    <g>
      <g>
        <path class="cls-17" d="M93.21,193.38l63.12,6.96-29.76,34.08-75.36-12,3.84-130.56-25.44-18,38.16-25.44,29.04,21.36-3.6,123.6Z"/>
        <path class="cls-17" d="M183.81,90.82l-10.32-8.4,34.32-37.2,11.52,8.88-35.52,36.72ZM156.57,120.74l37.44-20.16,21.6,17.52-1.92,82.08,22.08,12.24-38.88,21.12-19.92-15.36,1.92-84.96-22.32-12.48Z"/>
        <path class="cls-17" d="M288.81,131.06l-.48,69.6,17.52,13.68-34.8,19.2-19.44-14.88.48-81.12-22.08-16.8,37.44-20.16,21.84,18.72,33.84-18.72,28.56,18.24-1.44,81.84,21.6,11.76-38.64,21.12-19.68-14.88,1.44-76.56-26.16-11.04Z"/>
        <path class="cls-17" d="M420.57,152.98l22.8-10.08-22.56-17.76-.24,27.84ZM441.21,101.86l33.6,27.36-.48,25.2-54,14.4-.48,24.24,54.48,23.28-48.48,21.36-43.44-23.28,2.64-82.8,56.16-29.76Z"/>
        <path class="cls-17" d="M552.57,235.94l-45.12-20.16,2.4-121.92-25.44-18,38.16-25.44,29.28,21.36-2.4,120.48,40.32,16.56,1.44-114.96-25.68-18,38.4-25.44,29.04,21.36-1.2,122.88,28.32,15.6-43.44,25.2-27.12-17.76-36.96,18.24Z"/>
        <path class="cls-17" d="M744.45,212.74l.96-71.76-26.16-10.08-1.2,72.24,26.4,9.6ZM682.29,138.1l-22.08-17.76,37.44-17.76,21.84,16.56,34.08-16.56,28.56,20.4-1.44,85.68-55.44,25.2-8.88-3.84-.72,21.12,22.32,12.96-40.8,17.52-17.28-14.64,2.4-128.88Z"/>
      </g>
      <g>
        <polygon class="cls-11" points="92.69 193.96 155.81 200.92 126.05 235 50.69 223 54.53 92.44 29.09 74.44 67.25 49 96.29 70.36 92.69 193.96"/>
        <path class="cls-11" d="M183.43,91.21l-10.32-8.4,34.32-37.2,11.52,8.88-35.52,36.72ZM155.76,121.22l37.44-20.16,21.6,17.52-1.92,82.08,22.08,12.24-38.88,21.12-19.92-15.36,1.92-84.96-22.32-12.48Z"/>
        <polygon class="cls-11" points="288 131.54 287.52 201.15 305.04 214.83 270.24 234.03 250.79 219.15 251.27 138.03 229.19 121.22 266.63 101.06 288.48 119.79 322.32 101.06 350.88 119.3 349.44 201.15 371.04 212.91 332.4 234.03 312.72 219.15 314.16 142.59 288 131.54"/>
        <path class="cls-11" d="M419.75,153.37l22.8-10.08-22.56-17.76-.24,27.84ZM440.4,102.25l33.6,27.36-.48,25.2-54,14.4-.48,24.24,54.48,23.28-48.48,21.36-43.44-23.28,2.64-82.8,56.16-29.76Z"/>
        <polygon class="cls-11" points="551.75 236.43 506.63 216.27 509.03 94.34 483.59 76.34 521.75 50.9 551.03 72.26 548.63 192.75 588.95 209.31 590.39 94.34 564.71 76.34 603.11 50.9 632.15 72.26 630.95 195.15 659.27 210.75 615.83 235.95 588.71 218.19 551.75 236.43"/>
        <path class="cls-11" d="M743.49,213.13l.96-71.76-26.16-10.08-1.2,72.24,26.4,9.6ZM681.33,138.49l-22.08-17.76,37.44-17.76,21.84,16.56,34.08-16.56,28.56,20.4-1.44,85.68-55.44,25.2-8.88-3.84-.72,21.12,22.32,12.96-40.8,17.52-17.28-14.64,2.4-128.88Z"/>
      </g>
      <g>
        <polygon class="cls-4" points="92.16 194.55 155.28 201.51 125.52 235.59 50.16 223.59 54 93.02 28.56 75.02 66.72 49.58 95.76 70.94 92.16 194.55"/>
        <path class="cls-4" d="M183.04,91.6l-10.32-8.4,34.32-37.2,11.52,8.88-35.52,36.72ZM154.94,121.71l37.44-20.16,21.6,17.52-1.92,82.08,22.08,12.24-38.88,21.12-19.92-15.36,1.92-84.96-22.32-12.48Z"/>
        <polygon class="cls-4" points="287.18 132.03 286.7 201.63 304.22 215.32 269.42 234.52 249.98 219.64 250.46 138.51 228.38 121.71 265.82 101.55 287.66 120.27 321.5 101.55 350.06 119.79 348.62 201.63 370.22 213.4 331.58 234.52 311.9 219.64 313.34 143.07 287.18 132.03"/>
        <path class="cls-4" d="M418.94,153.76l22.8-10.08-22.56-17.76-.24,27.84ZM439.58,102.64l33.6,27.36-.48,25.2-54,14.4-.48,24.24,54.48,23.28-48.48,21.36-43.44-23.28,2.64-82.8,56.16-29.76Z"/>
        <polygon class="cls-4" points="550.94 236.92 505.82 216.76 508.22 94.83 482.78 76.83 520.94 51.39 550.22 72.75 547.82 193.24 588.14 209.8 589.58 94.83 563.9 76.83 602.3 51.39 631.34 72.75 630.14 195.63 658.46 211.24 615.02 236.44 587.9 218.68 550.94 236.92"/>
        <path class="cls-4" d="M742.53,213.53l.96-71.76-26.16-10.08-1.2,72.24,26.4,9.6ZM680.37,138.88l-22.08-17.76,37.44-17.76,21.84,16.56,34.08-16.56,28.56,20.4-1.44,85.68-55.44,25.2-8.88-3.84-.72,21.12,22.32,12.96-40.8,17.52-17.28-14.64,2.4-128.88Z"/>
      </g>
      <g>
        <polygon class="cls-20" points="91.63 195.13 154.75 202.09 124.99 236.17 49.63 224.17 53.47 93.61 28.03 75.61 66.19 50.17 95.23 71.53 91.63 195.13"/>
        <path class="cls-20" d="M182.65,92l-10.32-8.4,34.32-37.2,11.52,8.88-35.52,36.72ZM154.13,122.2l37.44-20.16,21.6,17.52-1.92,82.08,22.08,12.24-38.88,21.12-19.92-15.36,1.92-84.96-22.32-12.48Z"/>
        <polygon class="cls-20" points="286.37 132.52 285.89 202.12 303.41 215.8 268.61 235 249.17 220.12 249.65 139 227.57 122.2 265.01 102.04 286.85 120.76 320.69 102.04 349.25 120.28 347.81 202.12 369.41 213.88 330.77 235 311.09 220.12 312.53 143.56 286.37 132.52"/>
        <path class="cls-20" d="M418.13,154.16l22.8-10.08-22.56-17.76-.24,27.84ZM438.77,103.04l33.6,27.36-.48,25.2-54,14.4-.48,24.24,54.48,23.28-48.48,21.36-43.44-23.28,2.64-82.8,56.16-29.76Z"/>
        <polygon class="cls-20" points="550.12 237.4 505 217.24 507.4 95.32 481.96 77.32 520.12 51.88 549.4 73.24 547 193.72 587.32 210.28 588.76 95.32 563.08 77.32 601.48 51.88 630.52 73.24 629.32 196.12 657.65 211.72 614.2 236.92 587.08 219.16 550.12 237.4"/>
        <path class="cls-20" d="M741.57,213.92l.96-71.76-26.16-10.08-1.2,72.24,26.4,9.6ZM679.41,139.28l-22.08-17.76,37.44-17.76,21.84,16.56,34.08-16.56,28.56,20.4-1.44,85.68-55.44,25.2-8.88-3.84-.72,21.12,22.32,12.96-40.8,17.52-17.28-14.64,2.4-128.88Z"/>
      </g>
      <g>
        <polygon class="cls-1" points="91.1 195.71 154.22 202.67 124.46 236.75 49.1 224.75 52.94 94.19 27.5 76.19 65.66 50.75 94.7 72.11 91.1 195.71"/>
        <path class="cls-1" d="M182.27,92.39l-10.32-8.4,34.32-37.2,11.52,8.88-35.52,36.72ZM153.31,122.69l37.44-20.16,21.6,17.52-1.92,82.08,22.08,12.24-38.88,21.12-19.92-15.36,1.92-84.96-22.32-12.48Z"/>
        <polygon class="cls-1" points="285.55 133.01 285.07 202.61 302.59 216.29 267.79 235.49 248.35 220.61 248.83 139.49 226.75 122.69 264.19 102.53 286.03 121.25 319.87 102.53 348.43 120.77 346.99 202.61 368.59 214.37 329.95 235.49 310.27 220.61 311.71 144.05 285.55 133.01"/>
        <path class="cls-1" d="M417.31,154.55l22.8-10.08-22.56-17.76-.24,27.84ZM437.95,103.43l33.6,27.36-.48,25.2-54,14.4-.48,24.24,54.48,23.28-48.48,21.36-43.44-23.28,2.64-82.8,56.16-29.76Z"/>
        <polygon class="cls-1" points="549.31 237.89 504.19 217.73 506.59 95.81 481.15 77.81 519.31 52.37 548.59 73.73 546.19 194.21 586.51 210.77 587.95 95.81 562.27 77.81 600.67 52.37 629.71 73.73 628.51 196.61 656.83 212.21 613.39 237.41 586.27 219.65 549.31 237.89"/>
        <path class="cls-1" d="M740.62,214.31l.96-71.76-26.16-10.08-1.2,72.24,26.4,9.6ZM678.46,139.67l-22.08-17.76,37.44-17.76,21.84,16.56,34.08-16.56,28.56,20.4-1.44,85.68-55.44,25.2-8.88-3.84-.72,21.12,22.32,12.96-40.8,17.52-17.28-14.64,2.4-128.88Z"/>
      </g>
      <g>
        <polygon class="cls-7" points="90.57 196.3 153.69 203.26 123.93 237.34 48.57 225.34 52.41 94.77 26.97 76.77 65.13 51.33 94.17 72.69 90.57 196.3"/>
        <path class="cls-7" d="M181.88,92.78l-10.32-8.4,34.32-37.2,11.52,8.88-35.52,36.72ZM152.5,123.18l37.44-20.16,21.6,17.52-1.92,82.08,22.08,12.24-38.88,21.12-19.92-15.36,1.92-84.96-22.32-12.48Z"/>
        <polygon class="cls-7" points="284.74 133.5 284.26 203.1 301.78 216.78 266.98 235.98 247.54 221.1 248.02 139.98 225.94 123.18 263.38 103.02 285.22 121.74 319.06 103.02 347.62 121.26 346.18 203.1 367.78 214.86 329.14 235.98 309.46 221.1 310.9 144.54 284.74 133.5"/>
        <path class="cls-7" d="M416.5,154.94l22.8-10.08-22.56-17.76-.24,27.84ZM437.14,103.82l33.6,27.36-.48,25.2-54,14.4-.48,24.24,54.48,23.28-48.48,21.36-43.44-23.28,2.64-82.8,56.16-29.76Z"/>
        <polygon class="cls-7" points="548.49 238.38 503.37 218.22 505.77 96.3 480.33 78.3 518.49 52.86 547.77 74.22 545.37 194.7 585.69 211.26 587.13 96.3 561.45 78.3 599.85 52.86 628.89 74.22 627.7 197.1 656.02 212.7 612.57 237.9 585.45 220.14 548.49 238.38"/>
        <path class="cls-7" d="M739.66,214.7l.96-71.76-26.16-10.08-1.2,72.24,26.4,9.6ZM677.5,140.06l-22.08-17.76,37.44-17.76,21.84,16.56,34.08-16.56,28.56,20.4-1.44,85.68-55.44,25.2-8.88-3.84-.72,21.12,22.32,12.96-40.8,17.52-17.28-14.64,2.4-128.88Z"/>
      </g>
      <g>
        <polygon class="cls-23" points="90.04 196.88 153.16 203.84 123.4 237.92 48.04 225.92 51.88 95.36 26.44 77.36 64.6 51.92 93.64 73.28 90.04 196.88"/>
        <path class="cls-23" d="M181.5,93.18l-10.32-8.4,34.32-37.2,11.52,8.88-35.52,36.72ZM151.68,123.67l37.44-20.16,21.6,17.52-1.92,82.08,22.08,12.24-38.88,21.12-19.92-15.36,1.92-84.96-22.32-12.48Z"/>
        <polygon class="cls-23" points="283.92 133.99 283.44 203.59 300.96 217.27 266.16 236.47 246.72 221.59 247.2 140.47 225.12 123.67 262.56 103.51 284.4 122.23 318.24 103.51 346.8 121.75 345.36 203.59 366.96 215.35 328.32 236.47 308.64 221.59 310.08 145.03 283.92 133.99"/>
        <path class="cls-23" d="M415.68,155.34l22.8-10.08-22.56-17.76-.24,27.84ZM436.32,104.22l33.6,27.36-.48,25.2-54,14.4-.48,24.24,54.48,23.28-48.48,21.36-43.44-23.28,2.64-82.8,56.16-29.76Z"/>
        <polygon class="cls-23" points="547.68 238.87 502.56 218.71 504.96 96.79 479.52 78.79 517.68 53.35 546.96 74.71 544.56 195.19 584.88 211.75 586.32 96.79 560.64 78.79 599.04 53.35 628.08 74.71 626.88 197.59 655.2 213.19 611.76 238.39 584.64 220.63 547.68 238.87"/>
        <path class="cls-23" d="M738.7,215.1l.96-71.76-26.16-10.08-1.2,72.24,26.4,9.6ZM676.54,140.46l-22.08-17.76,37.44-17.76,21.84,16.56,34.08-16.56,28.56,20.4-1.44,85.68-55.44,25.2-8.88-3.84-.72,21.12,22.32,12.96-40.8,17.52-17.28-14.64,2.4-128.88Z"/>
      </g>
      <g>
        <polygon class="cls-14" points="89.51 197.46 152.63 204.42 122.87 238.5 47.51 226.5 51.35 95.94 25.91 77.94 64.07 52.5 93.11 73.86 89.51 197.46"/>
        <path class="cls-14" d="M181.11,93.57l-10.32-8.4,34.32-37.2,11.52,8.88-35.52,36.72ZM150.87,124.15l37.44-20.16,21.6,17.52-1.92,82.08,22.08,12.24-38.88,21.12-19.92-15.36,1.92-84.96-22.32-12.48Z"/>
        <polygon class="cls-14" points="283.11 134.48 282.63 204.08 300.15 217.76 265.35 236.96 245.91 222.08 246.39 140.96 224.31 124.15 261.75 103.99 283.59 122.72 317.43 103.99 345.99 122.23 344.55 204.08 366.15 215.84 327.51 236.96 307.83 222.08 309.27 145.52 283.11 134.48"/>
        <path class="cls-14" d="M414.87,155.73l22.8-10.08-22.56-17.76-.24,27.84ZM435.51,104.61l33.6,27.36-.48,25.2-54,14.4-.48,24.24,54.48,23.28-48.48,21.36-43.44-23.28,2.64-82.8,56.16-29.76Z"/>
        <polygon class="cls-14" points="546.86 239.36 501.74 219.2 504.14 97.27 478.7 79.27 516.86 53.83 546.14 75.19 543.74 195.68 584.07 212.24 585.5 97.27 559.82 79.27 598.23 53.83 627.27 75.19 626.07 198.08 654.39 213.68 610.95 238.88 583.83 221.12 546.86 239.36"/>
        <path class="cls-14" d="M737.75,215.49l.96-71.76-26.16-10.08-1.2,72.24,26.4,9.6ZM675.58,140.85l-22.08-17.76,37.44-17.76,21.84,16.56,34.08-16.56,28.56,20.4-1.44,85.68-55.44,25.2-8.88-3.84-.72,21.12,22.32,12.96-40.8,17.52-17.28-14.64,2.4-128.88Z"/>
      </g>
      <g>
        <polygon class="cls-2" points="88.98 198.05 152.11 205.01 122.35 239.09 46.98 227.09 50.82 96.53 25.38 78.52 63.54 53.08 92.58 74.44 88.98 198.05"/>
        <path class="cls-2" d="M180.72,93.96l-10.32-8.4,34.32-37.2,11.52,8.88-35.52,36.72ZM150.05,124.64l37.44-20.16,21.6,17.52-1.92,82.08,22.08,12.24-38.88,21.12-19.92-15.36,1.92-84.96-22.32-12.48Z"/>
        <polygon class="cls-2" points="282.29 134.96 281.81 204.56 299.33 218.25 264.53 237.45 245.09 222.57 245.57 141.44 223.49 124.64 260.93 104.48 282.77 123.2 316.61 104.48 345.17 122.72 343.73 204.56 365.33 216.33 326.69 237.45 307.01 222.57 308.45 146 282.29 134.96"/>
        <path class="cls-2" d="M414.05,156.12l22.8-10.08-22.56-17.76-.24,27.84ZM434.69,105l33.6,27.36-.48,25.2-54,14.4-.48,24.24,54.48,23.28-48.48,21.36-43.44-23.28,2.64-82.8,56.16-29.76Z"/>
        <polygon class="cls-2" points="546.05 239.85 500.93 219.69 503.33 97.76 477.89 79.76 516.05 54.32 545.33 75.68 542.93 196.17 583.25 212.73 584.69 97.76 559.01 79.76 597.41 54.32 626.45 75.68 625.25 198.56 653.57 214.17 610.13 239.37 583.01 221.61 546.05 239.85"/>
        <path class="cls-2" d="M736.79,215.88l.96-71.76-26.16-10.08-1.2,72.24,26.4,9.6ZM674.63,141.24l-22.08-17.76,37.44-17.76,21.84,16.56,34.08-16.56,28.56,20.4-1.44,85.68-55.44,25.2-8.88-3.84-.72,21.12,22.32,12.96-40.8,17.52-17.28-14.64,2.4-128.88Z"/>
      </g>
      <g>
        <polygon class="cls-16" points="88.46 198.63 151.58 205.59 121.82 239.67 46.45 227.67 50.29 97.11 24.85 79.11 63.01 53.67 92.06 75.03 88.46 198.63"/>
        <path class="cls-16" d="M180.34,94.35l-10.32-8.4,34.32-37.2,11.52,8.88-35.52,36.72ZM149.24,125.13l37.44-20.16,21.6,17.52-1.92,82.08,22.08,12.24-38.88,21.12-19.92-15.36,1.92-84.96-22.32-12.48Z"/>
        <polygon class="cls-16" points="281.48 135.45 281 205.05 298.52 218.73 263.72 237.93 244.28 223.05 244.76 141.93 222.68 125.13 260.12 104.97 281.96 123.69 315.8 104.97 344.36 123.21 342.92 205.05 364.52 216.81 325.88 237.93 306.2 223.05 307.64 146.49 281.48 135.45"/>
        <path class="cls-16" d="M413.24,156.52l22.8-10.08-22.56-17.76-.24,27.84ZM433.88,105.39l33.6,27.36-.48,25.2-54,14.4-.48,24.24,54.48,23.28-48.48,21.36-43.44-23.28,2.64-82.8,56.16-29.76Z"/>
        <polygon class="cls-16" points="545.24 240.33 500.11 220.17 502.51 98.25 477.07 80.25 515.23 54.81 544.52 76.17 542.12 196.65 582.44 213.21 583.88 98.25 558.2 80.25 596.6 54.81 625.64 76.17 624.44 199.05 652.76 214.65 609.32 239.85 582.2 222.09 545.24 240.33"/>
        <path class="cls-16" d="M735.83,216.28l.96-71.76-26.16-10.08-1.2,72.24,26.4,9.6ZM673.67,141.64l-22.08-17.76,37.44-17.76,21.84,16.56,34.08-16.56,28.56,20.4-1.44,85.68-55.44,25.2-8.88-3.84-.72,21.12,22.32,12.96-40.8,17.52-17.28-14.64,2.4-128.88Z"/>
      </g>
      <g>
        <polygon class="cls-19" points="87.93 199.21 151.05 206.17 121.29 240.26 45.93 228.26 49.77 97.69 24.33 79.69 62.49 54.25 91.53 75.61 87.93 199.21"/>
        <path class="cls-19" d="M179.95,94.75l-10.32-8.4,34.32-37.2,11.52,8.88-35.52,36.72ZM148.42,125.62l37.44-20.16,21.6,17.52-1.92,82.08,22.08,12.24-38.88,21.12-19.92-15.36,1.92-84.96-22.32-12.48Z"/>
        <polygon class="cls-19" points="280.66 135.94 280.18 205.54 297.7 219.22 262.9 238.42 243.46 223.54 243.94 142.42 221.86 125.62 259.3 105.46 281.14 124.18 314.99 105.46 343.55 123.7 342.11 205.54 363.71 217.3 325.07 238.42 305.38 223.54 306.82 146.98 280.66 135.94"/>
        <path class="cls-19" d="M412.42,156.91l22.8-10.08-22.56-17.76-.24,27.84ZM433.06,105.79l33.6,27.36-.48,25.2-54,14.4-.48,24.24,54.48,23.28-48.48,21.36-43.44-23.28,2.64-82.8,56.16-29.76Z"/>
        <polygon class="cls-19" points="544.42 240.82 499.3 220.66 501.7 98.74 476.26 80.74 514.42 55.3 543.7 76.66 541.3 197.14 581.62 213.7 583.06 98.74 557.38 80.74 595.78 55.3 624.82 76.66 623.62 199.54 651.94 215.14 608.5 240.34 581.38 222.58 544.42 240.82"/>
        <path class="cls-19" d="M734.87,216.67l.96-71.76-26.16-10.08-1.2,72.24,26.4,9.6ZM672.71,142.03l-22.08-17.76,37.44-17.76,21.84,16.56,34.08-16.56,28.56,20.4-1.44,85.68-55.44,25.2-8.88-3.84-.72,21.12,22.32,12.96-40.8,17.52-17.28-14.64,2.4-128.88Z"/>
      </g>
      <g>
        <polygon class="cls-12" points="87.4 199.8 150.52 206.76 120.76 240.84 45.4 228.84 49.24 98.28 23.8 80.27 61.96 54.84 91 76.19 87.4 199.8"/>
        <path class="cls-12" d="M179.57,95.14l-10.32-8.4,34.32-37.2,11.52,8.88-35.52,36.72ZM147.61,126.11l37.44-20.16,21.6,17.52-1.92,82.08,22.08,12.24-38.88,21.12-19.92-15.36,1.92-84.96-22.32-12.48Z"/>
        <polygon class="cls-12" points="279.85 136.43 279.37 206.03 296.89 219.71 262.09 238.91 242.65 224.03 243.13 142.91 221.05 126.11 258.49 105.95 280.33 124.67 314.17 105.95 342.73 124.19 341.29 206.03 362.89 217.79 324.25 238.91 304.57 224.03 306.01 147.47 279.85 136.43"/>
        <path class="cls-12" d="M411.61,157.3l22.8-10.08-22.56-17.76-.24,27.84ZM432.25,106.18l33.6,27.36-.48,25.2-54,14.4-.48,24.24,54.48,23.28-48.48,21.36-43.44-23.28,2.64-82.8,56.16-29.76Z"/>
        <polygon class="cls-12" points="543.61 241.31 498.48 221.15 500.89 99.23 475.44 81.23 513.6 55.79 542.89 77.15 540.49 197.63 580.81 214.19 582.25 99.23 556.57 81.23 594.97 55.79 624.01 77.15 622.81 200.03 651.13 215.63 607.69 240.83 580.57 223.07 543.61 241.31"/>
        <path class="cls-12" d="M733.92,217.06l.96-71.76-26.16-10.08-1.2,72.24,26.4,9.6ZM671.75,142.42l-22.08-17.76,37.44-17.76,21.84,16.56,34.08-16.56,28.56,20.4-1.44,85.68-55.44,25.2-8.88-3.84-.72,21.12,22.32,12.96-40.8,17.52-17.28-14.64,2.4-128.88Z"/>
      </g>
      <g>
        <polygon class="cls-9" points="86.87 200.38 149.99 207.34 120.23 241.42 44.87 229.42 48.71 98.86 23.27 80.86 61.43 55.42 90.47 76.78 86.87 200.38"/>
        <path class="cls-9" d="M179.18,95.53l-10.32-8.4,34.32-37.2,11.52,8.88-35.52,36.72ZM146.8,126.6l37.44-20.16,21.6,17.52-1.92,82.08,22.08,12.24-38.88,21.12-19.92-15.36,1.92-84.96-22.32-12.48Z"/>
        <polygon class="cls-9" points="279.03 136.92 278.56 206.52 296.08 220.2 261.27 239.4 241.83 224.52 242.31 143.4 220.23 126.6 257.67 106.44 279.52 125.16 313.36 106.44 341.92 124.68 340.48 206.52 362.08 218.28 323.44 239.4 303.76 224.52 305.2 147.96 279.03 136.92"/>
        <path class="cls-9" d="M410.79,157.69l22.8-10.08-22.56-17.76-.24,27.84ZM431.43,106.57l33.6,27.36-.48,25.2-54,14.4-.48,24.24,54.48,23.28-48.48,21.36-43.44-23.28,2.64-82.8,56.16-29.76Z"/>
        <polygon class="cls-9" points="542.79 241.8 497.67 221.64 500.07 99.72 474.63 81.72 512.79 56.28 542.07 77.64 539.67 198.12 579.99 214.68 581.43 99.72 555.75 81.72 594.15 56.28 623.19 77.64 621.99 200.52 650.31 216.12 606.87 241.32 579.75 223.56 542.79 241.8"/>
        <path class="cls-9" d="M732.96,217.46l.96-71.76-26.16-10.08-1.2,72.24,26.4,9.6ZM670.8,142.81l-22.08-17.76,37.44-17.76,21.84,16.56,34.08-16.56,28.56,20.4-1.44,85.68-55.44,25.2-8.88-3.84-.72,21.12,22.32,12.96-40.8,17.52-17.28-14.64,2.4-128.88Z"/>
      </g>
      <g>
        <polygon class="cls-22" points="86.34 200.97 149.46 207.93 119.7 242.01 44.34 230.01 48.18 99.44 22.74 81.44 60.9 56 89.94 77.36 86.34 200.97"/>
        <path class="cls-22" d="M178.79,95.93l-10.32-8.4,34.32-37.2,11.52,8.88-35.52,36.72ZM145.98,127.08l37.44-20.16,21.6,17.52-1.92,82.08,22.08,12.24-38.88,21.12-19.92-15.36,1.92-84.96-22.32-12.48Z"/>
        <polygon class="cls-22" points="278.22 137.41 277.74 207.01 295.26 220.69 260.46 239.89 241.02 225.01 241.5 143.89 219.42 127.08 256.86 106.92 278.7 125.65 312.54 106.92 341.1 125.16 339.66 207.01 361.26 218.77 322.62 239.89 302.94 225.01 304.38 148.45 278.22 137.41"/>
        <path class="cls-22" d="M409.98,158.09l22.8-10.08-22.56-17.76-.24,27.84ZM430.62,106.97l33.6,27.36-.48,25.2-54,14.4-.48,24.24,54.48,23.28-48.48,21.36-43.44-23.28,2.64-82.8,56.16-29.76Z"/>
        <polygon class="cls-22" points="541.98 242.29 496.86 222.13 499.26 100.2 473.81 82.2 511.98 56.76 541.26 78.12 538.86 198.61 579.18 215.17 580.62 100.2 554.94 82.2 593.34 56.76 622.38 78.12 621.18 201.01 649.5 216.61 606.06 241.81 578.94 224.05 541.98 242.29"/>
        <path class="cls-22" d="M732,217.85l.96-71.76-26.16-10.08-1.2,72.24,26.4,9.6ZM669.84,143.21l-22.08-17.76,37.44-17.76,21.84,16.56,34.08-16.56,28.56,20.4-1.44,85.68-55.44,25.2-8.88-3.84-.72,21.12,22.32,12.96-40.8,17.52-17.28-14.64,2.4-128.88Z"/>
      </g>
      <g>
        <polygon class="cls-10" points="85.81 201.55 148.93 208.51 119.17 242.59 43.81 230.59 47.65 100.03 22.21 82.03 60.37 56.59 89.41 77.95 85.81 201.55"/>
        <path class="cls-10" d="M178.41,96.32l-10.32-8.4,34.32-37.2,11.52,8.88-35.52,36.72ZM145.17,127.57l37.44-20.16,21.6,17.52-1.92,82.08,22.08,12.24-38.88,21.12-19.92-15.36,1.92-84.96-22.32-12.48Z"/>
        <polygon class="cls-10" points="277.41 137.89 276.93 207.5 294.45 221.18 259.65 240.38 240.21 225.5 240.68 144.37 218.6 127.57 256.05 107.41 277.89 126.13 311.73 107.41 340.29 125.65 338.85 207.5 360.45 219.26 321.81 240.38 302.13 225.5 303.57 148.93 277.41 137.89"/>
        <path class="cls-10" d="M409.17,158.48l22.8-10.08-22.56-17.76-.24,27.84ZM429.81,107.36l33.6,27.36-.48,25.2-54,14.4-.48,24.24,54.48,23.28-48.48,21.36-43.44-23.28,2.64-82.8,56.16-29.76Z"/>
        <polygon class="cls-10" points="541.16 242.78 496.04 222.62 498.44 100.69 473 82.69 511.16 57.25 540.44 78.61 538.04 199.1 578.36 215.66 579.8 100.69 554.12 82.69 592.52 57.25 621.56 78.61 620.36 201.5 648.68 217.1 605.24 242.3 578.12 224.54 541.16 242.78"/>
        <path class="cls-10" d="M731.04,218.24l.96-71.76-26.16-10.08-1.2,72.24,26.4,9.6ZM668.88,143.6l-22.08-17.76,37.44-17.76,21.84,16.56,34.08-16.56,28.56,20.4-1.44,85.68-55.44,25.2-8.88-3.84-.72,21.12,22.32,12.96-40.8,17.52-17.28-14.64,2.4-128.88Z"/>
      </g>
      <g>
        <polygon class="cls-8" points="85.28 202.13 148.4 209.09 118.64 243.17 43.28 231.17 47.12 100.61 21.68 82.61 59.84 57.17 88.88 78.53 85.28 202.13"/>
        <path class="cls-8" d="M178.02,96.71l-10.32-8.4,34.32-37.2,11.52,8.88-35.52,36.72ZM144.35,128.06l37.44-20.16,21.6,17.52-1.92,82.08,22.08,12.24-38.88,21.12-19.92-15.36,1.92-84.96-22.32-12.48Z"/>
        <polygon class="cls-8" points="276.59 138.38 276.11 207.98 293.63 221.67 258.83 240.86 239.39 225.98 239.87 144.86 217.79 128.06 255.23 107.9 277.07 126.62 310.91 107.9 339.47 126.14 338.03 207.98 359.63 219.74 320.99 240.86 301.31 225.98 302.75 149.42 276.59 138.38"/>
        <path class="cls-8" d="M408.35,158.87l22.8-10.08-22.56-17.76-.24,27.84ZM428.99,107.75l33.6,27.36-.48,25.2-54,14.4-.48,24.24,54.48,23.28-48.48,21.36-43.44-23.28,2.64-82.8,56.16-29.76Z"/>
        <polygon class="cls-8" points="540.35 243.26 495.23 223.1 497.63 101.18 472.19 83.18 510.35 57.74 539.63 79.1 537.23 199.58 577.55 216.14 578.99 101.18 553.31 83.18 591.71 57.74 620.75 79.1 619.55 201.98 647.87 217.58 604.43 242.78 577.31 225.02 540.35 243.26"/>
        <path class="cls-8" d="M730.09,218.64l.96-71.76-26.16-10.08-1.2,72.24,26.4,9.6ZM667.92,143.99l-22.08-17.76,37.44-17.76,21.84,16.56,34.08-16.56,28.56,20.4-1.44,85.68-55.44,25.2-8.88-3.84-.72,21.12,22.32,12.96-40.8,17.52-17.28-14.64,2.4-128.88Z"/>
      </g>
      <g>
        <polygon class="cls-6" points="84.75 202.72 147.87 209.68 118.11 243.76 42.75 231.76 46.59 101.19 21.15 83.19 59.31 57.75 88.35 79.11 84.75 202.72"/>
        <path class="cls-6" d="M177.64,97.11l-10.32-8.4,34.32-37.2,11.52,8.88-35.52,36.72ZM143.54,128.55l37.44-20.16,21.6,17.52-1.92,82.08,22.08,12.24-38.88,21.12-19.92-15.36,1.92-84.96-22.32-12.48Z"/>
        <polygon class="cls-6" points="275.78 138.87 275.3 208.47 292.82 222.15 258.02 241.35 238.58 226.47 239.06 145.35 216.98 128.55 254.42 108.39 276.26 127.11 310.1 108.39 338.66 126.63 337.22 208.47 358.82 220.23 320.18 241.35 300.5 226.47 301.94 149.91 275.78 138.87"/>
        <path class="cls-6" d="M407.54,159.27l22.8-10.08-22.56-17.76-.24,27.84ZM428.18,108.15l33.6,27.36-.48,25.2-54,14.4-.48,24.24,54.48,23.28-48.48,21.36-43.44-23.28,2.64-82.8,56.16-29.76Z"/>
        <polygon class="cls-6" points="539.53 243.75 494.41 223.59 496.81 101.67 471.37 83.67 509.53 58.23 538.81 79.59 536.41 200.07 576.73 216.63 578.17 101.67 552.49 83.67 590.89 58.23 619.93 79.59 618.74 202.47 647.06 218.07 603.61 243.27 576.49 225.51 539.53 243.75"/>
        <path class="cls-6" d="M729.13,219.03l.96-71.76-26.16-10.08-1.2,72.24,26.4,9.6ZM666.97,144.39l-22.08-17.76,37.44-17.76,21.84,16.56,34.08-16.56,28.56,20.4-1.44,85.68-55.44,25.2-8.88-3.84-.72,21.12,22.32,12.96-40.8,17.52-17.28-14.64,2.4-128.88Z"/>
      </g>
      <g>
        <polygon class="cls-21" points="84.22 203.3 147.35 210.26 117.59 244.34 42.22 232.34 46.06 101.78 20.62 83.78 58.78 58.34 87.82 79.7 84.22 203.3"/>
        <path class="cls-21" d="M177.25,97.5l-10.32-8.4,34.32-37.2,11.52,8.88-35.52,36.72ZM142.72,129.04l37.44-20.16,21.6,17.52-1.92,82.08,22.08,12.24-38.88,21.12-19.92-15.36,1.92-84.96-22.32-12.48Z"/>
        <polygon class="cls-21" points="274.96 139.36 274.48 208.96 292 222.64 257.2 241.84 237.76 226.96 238.24 145.84 216.16 129.04 253.6 108.88 275.44 127.6 309.28 108.88 337.84 127.12 336.4 208.96 358 220.72 319.36 241.84 299.68 226.96 301.12 150.4 274.96 139.36"/>
        <path class="cls-21" d="M406.72,159.66l22.8-10.08-22.56-17.76-.24,27.84ZM427.36,108.54l33.6,27.36-.48,25.2-54,14.4-.48,24.24,54.48,23.28-48.48,21.36-43.44-23.28,2.64-82.8,56.16-29.76Z"/>
        <polygon class="cls-21" points="538.72 244.24 493.6 224.08 496 102.16 470.56 84.16 508.72 58.72 538 80.08 535.6 200.56 575.92 217.12 577.36 102.16 551.68 84.16 590.08 58.72 619.12 80.08 617.92 202.96 646.24 218.56 602.8 243.76 575.68 226 538.72 244.24"/>
        <path class="cls-21" d="M728.17,219.42l.96-71.76-26.16-10.08-1.2,72.24,26.4,9.6ZM666.01,144.78l-22.08-17.76,37.44-17.76,21.84,16.56,34.08-16.56,28.56,20.4-1.44,85.68-55.44,25.2-8.88-3.84-.72,21.12,22.32,12.96-40.8,17.52-17.28-14.64,2.4-128.88Z"/>
      </g>
      <g>
        <polygon class="cls-5" points="83.7 203.88 146.82 210.84 117.06 244.92 41.69 232.92 45.53 102.36 20.09 84.36 58.25 58.92 87.3 80.28 83.7 203.88"/>
        <path class="cls-5" d="M176.86,97.89l-10.32-8.4,34.32-37.2,11.52,8.88-35.52,36.72ZM141.91,129.53l37.44-20.16,21.6,17.52-1.92,82.08,22.08,12.24-38.88,21.12-19.92-15.36,1.92-84.96-22.32-12.48Z"/>
        <polygon class="cls-5" points="274.15 139.85 273.67 209.45 291.19 223.13 256.39 242.33 236.95 227.45 237.43 146.33 215.35 129.53 252.79 109.37 274.63 128.09 308.47 109.37 337.03 127.61 335.59 209.45 357.19 221.21 318.55 242.33 298.87 227.45 300.31 150.89 274.15 139.85"/>
        <path class="cls-5" d="M405.91,160.05l22.8-10.08-22.56-17.76-.24,27.84ZM426.55,108.93l33.6,27.36-.48,25.2-54,14.4-.48,24.24,54.48,23.28-48.48,21.36-43.44-23.28,2.64-82.8,56.16-29.76Z"/>
        <polygon class="cls-5" points="537.9 244.73 492.78 224.57 495.18 102.65 469.74 84.65 507.9 59.21 537.18 80.57 534.78 201.05 575.11 217.61 576.54 102.65 550.86 84.65 589.27 59.21 618.31 80.57 617.11 203.45 645.43 219.05 601.98 244.25 574.86 226.49 537.9 244.73"/>
        <path class="cls-5" d="M727.21,219.82l.96-71.76-26.16-10.08-1.2,72.24,26.4,9.6ZM665.05,145.17l-22.08-17.76,37.44-17.76,21.84,16.56,34.08-16.56,28.56,20.4-1.44,85.68-55.44,25.2-8.88-3.84-.72,21.12,22.32,12.96-40.8,17.52-17.28-14.64,2.4-128.88Z"/>
      </g>
      <g>
        <polygon class="cls-13" points="83.17 204.47 146.29 211.43 116.53 245.51 41.17 233.51 45.01 102.94 19.57 84.94 57.73 59.5 86.77 80.86 83.17 204.47"/>
        <path class="cls-13" d="M176.48,98.29l-10.32-8.4,34.32-37.2,11.52,8.88-35.52,36.72ZM141.09,130.01l37.44-20.16,21.6,17.52-1.92,82.08,22.08,12.24-38.88,21.12-19.92-15.36,1.92-84.96-22.32-12.48Z"/>
        <polygon class="cls-13" points="273.33 140.34 272.85 209.94 290.37 223.62 255.57 242.82 236.13 227.94 236.61 146.82 214.53 130.01 251.97 109.85 273.81 128.58 307.65 109.85 336.21 128.09 334.77 209.94 356.37 221.7 317.73 242.82 298.05 227.94 299.49 151.38 273.33 140.34"/>
        <path class="cls-13" d="M405.09,160.45l22.8-10.08-22.56-17.76-.24,27.84ZM425.73,109.33l33.6,27.36-.48,25.2-54,14.4-.48,24.24,54.48,23.28-48.48,21.36-43.44-23.28,2.64-82.8,56.16-29.76Z"/>
        <polygon class="cls-13" points="537.09 245.22 491.97 225.06 494.37 103.14 468.93 85.13 507.09 59.69 536.37 81.05 533.97 201.54 574.29 218.1 575.73 103.14 550.05 85.13 588.45 59.69 617.49 81.05 616.29 203.94 644.61 219.54 601.17 244.74 574.05 226.98 537.09 245.22"/>
        <path class="cls-13" d="M726.26,220.21l.96-71.76-26.16-10.08-1.2,72.24,26.4,9.6ZM664.09,145.57l-22.08-17.76,37.44-17.76,21.84,16.56,34.08-16.56,28.56,20.4-1.44,85.68-55.44,25.2-8.88-3.84-.72,21.12,22.32,12.96-40.8,17.52-17.28-14.64,2.4-128.88Z"/>
      </g>
      <g>
        <polygon class="cls-15" points="82.64 205.05 145.76 212.01 116 246.09 40.64 234.09 44.48 103.53 19.04 85.53 57.2 60.09 86.24 81.45 82.64 205.05"/>
        <path class="cls-15" d="M176.09,98.68l-10.32-8.4,34.32-37.2,11.52,8.88-35.52,36.72ZM140.28,130.5l37.44-20.16,21.6,17.52-1.92,82.08,22.08,12.24-38.88,21.12-19.92-15.36,1.92-84.96-22.32-12.48Z"/>
        <polygon class="cls-15" points="272.52 140.82 272.04 210.43 289.56 224.11 254.76 243.31 235.32 228.43 235.8 147.3 213.72 130.5 251.16 110.34 273 129.06 306.84 110.34 335.4 128.58 333.96 210.43 355.56 222.19 316.92 243.31 297.24 228.43 298.68 151.86 272.52 140.82"/>
        <path class="cls-15" d="M404.28,160.84l22.8-10.08-22.56-17.76-.24,27.84ZM424.92,109.72l33.6,27.36-.48,25.2-54,14.4-.48,24.24,54.48,23.28-48.48,21.36-43.44-23.28,2.64-82.8,56.16-29.76Z"/>
        <polygon class="cls-15" points="536.27 245.71 491.15 225.55 493.55 103.62 468.11 85.62 506.27 60.18 535.55 81.54 533.15 202.03 573.48 218.59 574.92 103.62 549.23 85.62 587.64 60.18 616.68 81.54 615.48 204.43 643.8 220.03 600.36 245.23 573.24 227.47 536.27 245.71"/>
        <path class="cls-15" d="M725.3,220.6l.96-71.76-26.16-10.08-1.2,72.24,26.4,9.6ZM663.14,145.96l-22.08-17.76,37.44-17.76,21.84,16.56,34.08-16.56,28.56,20.4-1.44,85.68-55.44,25.2-8.88-3.84-.72,21.12,22.32,12.96-40.8,17.52-17.28-14.64,2.4-128.88Z"/>
      </g>
      <g>
        <path class="cls-18" d="M82.11,205.63l63.12,6.96-29.76,34.08-75.36-12,3.84-130.56-25.44-18,38.16-25.44,29.04,21.36-3.6,123.6Z"/>
        <path class="cls-18" d="M175.71,99.07l-10.32-8.4,34.32-37.2,11.52,8.88-35.52,36.72ZM139.46,130.99l37.44-20.16,21.6,17.52-1.92,82.08,22.08,12.24-38.88,21.12-19.92-15.36,1.92-84.96-22.32-12.48Z"/>
        <path class="cls-18" d="M271.7,141.31l-.48,69.6,17.52,13.68-34.8,19.2-19.44-14.88.48-81.12-22.08-16.8,37.44-20.16,21.84,18.72,33.84-18.72,28.56,18.24-1.44,81.84,21.6,11.76-38.64,21.12-19.68-14.88,1.44-76.56-26.16-11.04Z"/>
        <path class="cls-18" d="M403.46,161.23l22.8-10.08-22.56-17.76-.24,27.84ZM424.1,110.11l33.6,27.36-.48,25.2-54,14.4-.48,24.24,54.48,23.28-48.48,21.36-43.44-23.28,2.64-82.8,56.16-29.76Z"/>
        <path class="cls-18" d="M535.46,246.19l-45.12-20.16,2.4-121.92-25.44-18,38.16-25.44,29.28,21.36-2.4,120.48,40.32,16.56,1.44-114.96-25.68-18,38.4-25.44,29.04,21.36-1.2,122.88,28.32,15.6-43.44,25.2-27.12-17.76-36.96,18.24Z"/>
        <path class="cls-18" d="M724.34,220.99l.96-71.76-26.16-10.08-1.2,72.24,26.4,9.6ZM662.18,146.35l-22.08-17.76,37.44-17.76,21.84,16.56,34.08-16.56,28.56,20.4-1.44,85.68-55.44,25.2-8.88-3.84-.72,21.12,22.32,12.96-40.8,17.52-17.28-14.64,2.4-128.88Z"/>
      </g>
    </g>
    <g>
      <path class="cls-3" d="M672.86,143.4c17.5,1.06,20.07,37.36,2.54,37.48-11.75.08-27.28.16-39.1.94-1.95-35.81-20.73-41.87,36.57-38.42Z"/>
      <path class="cls-3" d="M718.63,146.66c0,17.53,3.07,16.25,3.07,33.78-11.82.77-48.44.4-60.39.59,18.57-.3-34.56-22.74-28.6-32.37,5.55-8.95,70.19-5.28,85.91-2.01Z"/>
      <path class="cls-3" d="M619.85,181.9c-2.14-.04-18.04.67-18.75-.33,0-18.56,1.19-19.08,1.19-37.64,11.86-.26,16.01.08,27.87-.18.8.41,3.43-.65,4.12.52.95,1.6-.71,31.67,0,37.12-.67.94-12.28.55-14.44.52Z"/>
      <g>
        <path class="cls-3" d="M588.91,181.9c-4.1.21-16.04,1.05-20.15,1.17,0-19.08,7.78-20.25,7.78-39.33,2.74.1,5.52-.17,8.25,0,2.97.18,18.79-.61,19.59.52v37.12c-.76,1.08-13.05.39-15.47.52Z"/>
        <path class="cls-3" d="M576.54,181.9c-.99.03-1.09,1.03-2.06,1.03v-39.19c.69,0,1.38-.03,2.06,0v38.16Z"/>
        <g>
          <path class="cls-3" d="M593.04,163.85c2.58,7.94-15.6,4.15-4.64-2.58q2.32,1.29,4.64,2.58Z"/>
          <path class="cls-3" d="M590.98,163.85l-1.55,3.61c-7.26-2.55-.22-5.89,1.55-3.61Z"/>
        </g>
      </g>
      <g>
        <path class="cls-3" d="M574.48,182.93c-3.35.02-24.09.76-24.84-.29-.52-19.59,1.3-19.87.79-39.46,1.84-2.16,20.25.52,24.05.57v39.19Z"/>
        <g>
          <path class="cls-3" d="M562.1,162.82v4.12c-10.48,6.1-10.55-10.48,0-4.12Z"/>
          <path class="cls-3" d="M561.07,164.89c-3.32,4.13-8.04-1.25-2.58-2.58l2.58,2.58Z"/>
        </g>
      </g>
    </g>
    <path class="cls-3" d="M826.89,190.85s2.58,4.38-21.51,3.99"/>
  </g>
</svg>