<svg width="71" height="79" viewBox="0 0 71 79" fill="none" xmlns="http://www.w3.org/2000/svg">
<path d="M2 69.1111V10.3889C2 5.75583 5.75583 2 10.3889 2H66.5944C67.9845 2 69.1111 3.12675 69.1111 4.51667V59.5239" stroke="#C09FC9" stroke-width="3" stroke-linecap="round"/>
<path d="M2 69.1111V10.3889C2 5.75583 5.75583 2 10.3889 2H66.5944C67.9845 2 69.1111 3.12675 69.1111 4.51667V59.5239" stroke="black" stroke-opacity="0.2" stroke-width="3" stroke-linecap="round"/>
<path d="M18.7778 2V35.5556L29.2639 28.8444L39.7501 35.5556V2" stroke="#C09FC9" stroke-width="3" stroke-linecap="round" stroke-linejoin="round"/>
<path d="M18.7778 2V35.5556L29.2639 28.8444L39.7501 35.5556V2" stroke="black" stroke-opacity="0.2" stroke-width="3" stroke-linecap="round" stroke-linejoin="round"/>
<path d="M10.3889 60.7223H69.1111" stroke="#C09FC9" stroke-width="3" stroke-linecap="round"/>
<path d="M10.3889 60.7223H69.1111" stroke="black" stroke-opacity="0.2" stroke-width="3" stroke-linecap="round"/>
<path d="M10.3889 77.5H69.1111" stroke="#C09FC9" stroke-width="3" stroke-linecap="round"/>
<path d="M10.3889 77.5H69.1111" stroke="black" stroke-opacity="0.2" stroke-width="3" stroke-linecap="round"/>
<path d="M10.3889 77.5C5.75583 77.5 2 73.7443 2 69.1111C2 64.478 5.75583 60.7223 10.3889 60.7223" stroke="#C09FC9" stroke-width="3" stroke-linecap="round" stroke-linejoin="round"/>
<path d="M10.3889 77.5C5.75583 77.5 2 73.7443 2 69.1111C2 64.478 5.75583 60.7223 10.3889 60.7223" stroke="black" stroke-opacity="0.2" stroke-width="3" stroke-linecap="round" stroke-linejoin="round"/>
</svg>
