<svg width="75" height="79" viewBox="0 0 75 79" fill="none" xmlns="http://www.w3.org/2000/svg">
<path d="M49.3333 9.94737V2M49.3333 9.94737V17.8947M49.3333 9.94737H31.5833M2 33.7895V69.5526C2 73.942 5.53197 77.5 9.88889 77.5H65.1111C69.4681 77.5 73 73.942 73 69.5526V33.7895H2Z" stroke="#C09FC9" stroke-width="3" stroke-linecap="round" stroke-linejoin="round"/>
<path d="M49.3333 9.94737V2M49.3333 9.94737V17.8947M49.3333 9.94737H31.5833M2 33.7895V69.5526C2 73.942 5.53197 77.5 9.88889 77.5H65.1111C69.4681 77.5 73 73.942 73 69.5526V33.7895H2Z" stroke="black" stroke-opacity="0.2" stroke-width="3" stroke-linecap="round" stroke-linejoin="round"/>
<path d="M2 33.7895V17.8947C2 13.5055 5.53197 9.94737 9.88889 9.94737H17.7778" stroke="#C09FC9" stroke-width="3" stroke-linecap="round" stroke-linejoin="round"/>
<path d="M2 33.7895V17.8947C2 13.5055 5.53197 9.94737 9.88889 9.94737H17.7778" stroke="black" stroke-opacity="0.2" stroke-width="3" stroke-linecap="round" stroke-linejoin="round"/>
<path d="M17.7778 2V17.8947" stroke="#C09FC9" stroke-width="3" stroke-linecap="round" stroke-linejoin="round"/>
<path d="M17.7778 2V17.8947" stroke="black" stroke-opacity="0.2" stroke-width="3" stroke-linecap="round" stroke-linejoin="round"/>
<path d="M73 33.7895V17.8947C73 13.5055 69.4682 9.94737 65.1111 9.94737H63.1389" stroke="#C09FC9" stroke-width="3" stroke-linecap="round" stroke-linejoin="round"/>
<path d="M73 33.7895V17.8947C73 13.5055 69.4682 9.94737 65.1111 9.94737H63.1389" stroke="black" stroke-opacity="0.2" stroke-width="3" stroke-linecap="round" stroke-linejoin="round"/>
</svg>
