<svg width="79" height="79" viewBox="0 0 79 79" fill="none" xmlns="http://www.w3.org/2000/svg">
<path d="M20.875 41.6375L32.2 52.9625L58.625 26.5375" stroke="#C09FC9" stroke-width="3" stroke-linecap="round" stroke-linejoin="round"/>
<path d="M20.875 41.6375L32.2 52.9625L58.625 26.5375" stroke="black" stroke-opacity="0.2" stroke-width="3" stroke-linecap="round" stroke-linejoin="round"/>
<path d="M77.5 39.75C77.5 2 77.5 2 39.75 2C2 2 2 2 2 39.75C2 77.5 2 77.5 39.75 77.5C77.5 77.5 77.5 77.5 77.5 39.75Z" stroke="#C09FC9" stroke-width="3" stroke-linecap="round" stroke-linejoin="round"/>
<path d="M77.5 39.75C77.5 2 77.5 2 39.75 2C2 2 2 2 2 39.75C2 77.5 2 77.5 39.75 77.5C77.5 77.5 77.5 77.5 77.5 39.75Z" stroke="black" stroke-opacity="0.2" stroke-width="3" stroke-linecap="round" stroke-linejoin="round"/>
</svg>
