<?xml version="1.0" encoding="UTF-8"?>
<svg id="OBJECTS" xmlns="http://www.w3.org/2000/svg" viewBox="0 0 510 156">
  <defs>
    <style>
      .cls-1 {
        fill: #000;
      }

      .cls-1, .cls-2, .cls-3, .cls-4, .cls-5, .cls-6, .cls-7, .cls-8, .cls-9 {
        stroke-width: 0px;
      }

      .cls-2 {
        fill: #c09fc9;
      }

      .cls-3 {
        fill: #95979a;
      }

      .cls-4 {
        fill: #35393a;
      }

      .cls-5 {
        fill: #8c0000;
      }

      .cls-6 {
        fill: #f9f8f1;
      }

      .cls-7 {
        fill: #930000;
      }

      .cls-8 {
        fill: #df3838;
      }

      .cls-10 {
        fill: none;
        stroke: #fff;
        stroke-miterlimit: 10;
        stroke-width: .4px;
      }

      .cls-9 {
        fill: #fff;
      }
    </style>
  </defs>
  <path class="cls-8" d="M468.03.81l-191.65,70.84c-1.47.43-2.49,1.77-2.53,3.3l-.3,10.49h-.04s.02.76.02.76l-.02.76h.04s.3,10.49.3,10.49c.04,1.53,1.06,2.87,2.53,3.3l172.46,54.42c2.42.71,4.43-1.94,3.09-4.08l-27.24-58.81c-2.33-3.73-2.33-8.46,0-12.19L471.12,4.89c1.34-2.13-.68-4.79-3.09-4.08Z"/>
  <path class="cls-7" d="M462.97,2.68c.21.69.15,1.48-.31,2.2l-46.43,75.23c-2.33,3.73-2.33,8.46,0,12.19l27.24,58.81c.51.81.53,1.7.23,2.45l5.15,1.62c2.41.71,4.43-1.94,3.09-4.08l-27.24-58.81c-2.33-3.73-2.33-8.46,0-12.19L471.12,4.89c1.34-2.13-.68-4.79-3.09-4.08l-5.06,1.87Z"/>
  <path class="cls-6" d="M277.74,78.09s-1-3.09,4.36-5.03c4.86-1.76,75.02-27.04,88.2-31.79,1.04-.37,2.13.4,2.13,1.5v43.79s-94.69,0-94.69,0v-8.47Z"/>
  <path class="cls-2" d="M93.18,72.64l-1.62-7.14-1.36.35c-.82.21-1.65-.28-1.86-1.1l-.41-1.61c-.21-.82.28-1.65,1.1-1.86l5.25-1.34c.82-.21,1.65.28,1.86,1.1l.41,1.61c.21.82-.28,1.65-1.1,1.86l-1.55.4,1.64,7.21-2.36.53Z"/>
  <path class="cls-2" d="M77.41,76.5l-1.62-7.14-1.36.35c-.82.21-1.65-.28-1.86-1.1l-.41-1.61c-.21-.82.28-1.65,1.1-1.86l5.25-1.34c.82-.21,1.65.28,1.86,1.1l.41,1.61c.21.82-.28,1.65-1.1,1.86l-1.55.4,1.64,7.21-2.36.53Z"/>
  <path class="cls-2" d="M62.18,80.34l-1.62-7.14-1.36.35c-.82.21-1.65-.28-1.86-1.1l-.41-1.61c-.21-.82.28-1.65,1.1-1.86l5.25-1.34c.82-.21,1.65.28,1.86,1.1l.41,1.61c.21.82-.28,1.65-1.1,1.86l-1.55.4,1.64,7.21-2.36.53Z"/>
  <path class="cls-2" d="M93.18,99.65l-1.62,7.14-1.36-.35c-.82-.21-1.65.28-1.86,1.1l-.41,1.61c-.21.82.28,1.65,1.1,1.86l5.25,1.34c.82.21,1.65-.28,1.86-1.1l.41-1.61c.21-.82-.28-1.65-1.1-1.86l-1.55-.4,1.64-7.21-2.36-.53Z"/>
  <path class="cls-2" d="M77.41,95.79l-1.62,7.14-1.36-.35c-.82-.21-1.65.28-1.86,1.1l-.41,1.61c-.21.82.28,1.65,1.1,1.86l5.25,1.34c.82.21,1.65-.28,1.86-1.1l.41-1.61c.21-.82-.28-1.65-1.1-1.86l-1.55-.4,1.64-7.21-2.36-.53Z"/>
  <path class="cls-5" d="M342.13,69.61v31.85c0,1.16-.94,2.1-2.09,2.1h-7.45s0-36.04,0-36.04h7.45c1.16,0,2.09.94,2.09,2.1Z"/>
  <path class="cls-5" d="M349.67,100.01h2.28c.93,0,1.68-.75,1.68-1.68v-25.57c0-.93-.75-1.68-1.68-1.68h-2.28v28.93Z"/>
  <path class="cls-5" d="M378.56,69.61v31.85c0,1.16-.94,2.1-2.09,2.1h-7.45s0-36.04,0-36.04h7.45c1.16,0,2.1.94,2.09,2.09Z"/>
  <path class="cls-5" d="M304.89,77.62v17.18c0,.77-.62,1.39-1.39,1.39h-4.18s0-19.96,0-19.96h4.18c.77,0,1.39.62,1.39,1.39Z"/>
  <g>
    <g>
      <path class="cls-2" d="M351.9,73.47v24.14c0,1.32-1.07,2.39-2.39,2.39h0c-1.32,0-2.39-1.07-2.39-2.39v-24.14c0-1.32,1.07-2.39,2.39-2.39h0c1.32,0,2.39,1.07,2.39,2.39Z"/>
      <g>
        <g>
          <path class="cls-2" d="M348.61,95.07c0-.49.4-.89.89-.89.49,0,.89.4.89.89,0,.49-.4.89-.89.89-.49,0-.89-.4-.89-.89Z"/>
          <path class="cls-2" d="M348.61,79.84c0-.49.4-.89.89-.89.49,0,.89.4.89.89,0,.49-.4.89-.89.89-.49,0-.89-.4-.89-.89Z"/>
          <path class="cls-2" d="M348.61,87.45c0-.49.4-.89.89-.89s.89.4.89.89c0,.49-.4.89-.89.89-.49,0-.89-.4-.89-.89Z"/>
        </g>
        <g>
          <path class="cls-2" d="M348.61,91.19c0-.49.4-.89.89-.89s.89.4.89.89-.4.89-.89.89-.89-.4-.89-.89Z"/>
          <path class="cls-2" d="M348.61,75.96c0-.49.4-.89.89-.89s.89.4.89.89c0,.49-.4.89-.89.89-.49,0-.89-.4-.89-.89Z"/>
          <path class="cls-2" d="M348.61,83.58c0-.49.4-.89.89-.89.49,0,.89.4.89.89s-.4.89-.89.89c-.49,0-.89-.4-.89-.89Z"/>
        </g>
      </g>
    </g>
    <g>
      <rect class="cls-2" x="357.06" y="67.52" width="19.09" height="36.04" rx="1.22" ry="1.22"/>
      <rect class="cls-2" x="359.88" y="70.52" width="13.44" height="30.05" rx="1.22" ry="1.22"/>
      <g>
        <path class="cls-2" d="M365.57,73.47v24.14c0,1.32-1.07,2.39-2.39,2.39h0c-1.32,0-2.39-1.07-2.39-2.39v-24.14c0-1.32,1.07-2.39,2.39-2.39h0c1.32,0,2.39,1.07,2.39,2.39Z"/>
        <path class="cls-2" d="M372.43,73.47v24.14c0,1.32-1.07,2.39-2.39,2.39h0c-1.32,0-2.39-1.07-2.39-2.39v-24.14c0-1.32,1.07-2.39,2.39-2.39h0c1.32,0,2.39,1.07,2.39,2.39Z"/>
      </g>
      <g>
        <path class="cls-2" d="M358.99,101.06c.49,0,.89.4.89.89s-.4.89-.89.89c-.49,0-.89-.4-.89-.89,0-.49.4-.89.89-.89Z"/>
        <path class="cls-2" d="M374.22,101.06c.49,0,.89.4.89.89s-.4.89-.89.89c-.49,0-.89-.4-.89-.89s.4-.89.89-.89Z"/>
        <path class="cls-2" d="M366.6,101.06c.49,0,.89.4.89.89,0,.49-.4.89-.89.89s-.89-.4-.89-.89c0-.49.4-.89.89-.89Z"/>
      </g>
      <g>
        <g>
          <path class="cls-2" d="M362.28,95.07c0-.49.4-.89.89-.89.49,0,.89.4.89.89,0,.49-.4.89-.89.89-.49,0-.89-.4-.89-.89Z"/>
          <path class="cls-2" d="M362.28,79.84c0-.49.4-.89.89-.89.49,0,.89.4.89.89,0,.49-.4.89-.89.89s-.89-.4-.89-.89Z"/>
          <path class="cls-2" d="M362.28,87.45c0-.49.4-.89.89-.89s.89.4.89.89c0,.49-.4.89-.89.89-.49,0-.89-.4-.89-.89Z"/>
        </g>
        <g>
          <path class="cls-2" d="M362.28,91.19c0-.49.4-.89.89-.89.49,0,.89.4.89.89,0,.49-.4.89-.89.89s-.89-.4-.89-.89Z"/>
          <path class="cls-2" d="M362.28,75.96c0-.49.4-.89.89-.89s.89.4.89.89c0,.49-.4.89-.89.89-.49,0-.89-.4-.89-.89Z"/>
          <path class="cls-2" d="M362.28,83.58c0-.49.4-.89.89-.89.49,0,.89.4.89.89,0,.49-.4.89-.89.89-.49,0-.89-.4-.89-.89Z"/>
        </g>
      </g>
      <g>
        <g>
          <path class="cls-2" d="M369.14,95.07c0-.49.4-.89.89-.89.49,0,.89.4.89.89,0,.49-.4.89-.89.89s-.89-.4-.89-.89Z"/>
          <path class="cls-2" d="M369.14,79.84c0-.49.4-.89.89-.89s.89.4.89.89-.4.89-.89.89c-.49,0-.89-.4-.89-.89Z"/>
          <path class="cls-2" d="M369.14,87.45c0-.49.4-.89.89-.89s.89.4.89.89-.4.89-.89.89-.89-.4-.89-.89Z"/>
        </g>
        <g>
          <path class="cls-2" d="M369.14,91.19c0-.49.4-.89.89-.89.49,0,.89.4.89.89s-.4.89-.89.89c-.49,0-.89-.4-.89-.89Z"/>
          <path class="cls-2" d="M369.14,75.96c0-.49.4-.89.89-.89s.89.4.89.89-.4.89-.89.89-.89-.4-.89-.89Z"/>
          <path class="cls-2" d="M369.14,83.58c0-.49.4-.89.89-.89.49,0,.89.4.89.89,0,.49-.4.89-.89.89s-.89-.4-.89-.89Z"/>
        </g>
      </g>
      <g>
        <path class="cls-2" d="M358.99,68.23c.49,0,.89.4.89.89,0,.49-.4.89-.89.89-.49,0-.89-.4-.89-.89,0-.49.4-.89.89-.89Z"/>
        <path class="cls-2" d="M374.22,68.23c.49,0,.89.4.89.89s-.4.89-.89.89-.89-.4-.89-.89.4-.89.89-.89Z"/>
        <path class="cls-2" d="M366.6,68.23c.49,0,.89.4.89.89,0,.49-.4.89-.89.89s-.89-.4-.89-.89.4-.89.89-.89Z"/>
      </g>
    </g>
    <g>
      <rect class="cls-2" x="320.2" y="67.52" width="19.09" height="36.04" rx="1.22" ry="1.22"/>
      <rect class="cls-2" x="323.02" y="70.52" width="13.44" height="30.05" rx="1.22" ry="1.22"/>
      <g>
        <path class="cls-2" d="M328.71,73.47v24.14c0,1.32-1.07,2.39-2.39,2.39h0c-1.32,0-2.39-1.07-2.39-2.39v-24.14c0-1.32,1.07-2.39,2.39-2.39h0c1.32,0,2.39,1.07,2.39,2.39Z"/>
        <path class="cls-2" d="M335.56,73.47v24.14c0,1.32-1.07,2.39-2.39,2.39h0c-1.32,0-2.39-1.07-2.39-2.39v-24.14c0-1.32,1.07-2.39,2.39-2.39h0c1.32,0,2.39,1.07,2.39,2.39Z"/>
      </g>
      <g>
        <path class="cls-2" d="M322.13,101.06c.49,0,.89.4.89.89s-.4.89-.89.89c-.49,0-.89-.4-.89-.89,0-.49.4-.89.89-.89Z"/>
        <path class="cls-2" d="M337.36,101.06c.49,0,.89.4.89.89,0,.49-.4.89-.89.89-.49,0-.89-.4-.89-.89,0-.49.4-.89.89-.89Z"/>
        <path class="cls-2" d="M329.74,101.06c.49,0,.89.4.89.89,0,.49-.4.89-.89.89-.49,0-.89-.4-.89-.89,0-.49.4-.89.89-.89Z"/>
      </g>
      <g>
        <g>
          <path class="cls-2" d="M325.42,95.07c0-.49.4-.89.89-.89.49,0,.89.4.89.89,0,.49-.4.89-.89.89-.49,0-.89-.4-.89-.89Z"/>
          <path class="cls-2" d="M325.42,79.84c0-.49.4-.89.89-.89.49,0,.89.4.89.89,0,.49-.4.89-.89.89s-.89-.4-.89-.89Z"/>
          <path class="cls-2" d="M325.42,87.45c0-.49.4-.89.89-.89.49,0,.89.4.89.89,0,.49-.4.89-.89.89-.49,0-.89-.4-.89-.89Z"/>
        </g>
        <g>
          <path class="cls-2" d="M325.42,91.19c0-.49.4-.89.89-.89.49,0,.89.4.89.89,0,.49-.4.89-.89.89s-.89-.4-.89-.89Z"/>
          <path class="cls-2" d="M325.42,75.96c0-.49.4-.89.89-.89.49,0,.89.4.89.89s-.4.89-.89.89c-.49,0-.89-.4-.89-.89Z"/>
          <path class="cls-2" d="M325.42,83.58c0-.49.4-.89.89-.89.49,0,.89.4.89.89,0,.49-.4.89-.89.89-.49,0-.89-.4-.89-.89Z"/>
        </g>
      </g>
      <g>
        <g>
          <path class="cls-2" d="M332.28,95.07c0-.49.4-.89.89-.89s.89.4.89.89c0,.49-.4.89-.89.89s-.89-.4-.89-.89Z"/>
          <path class="cls-2" d="M332.28,79.84c0-.49.4-.89.89-.89s.89.4.89.89-.4.89-.89.89c-.49,0-.89-.4-.89-.89Z"/>
          <path class="cls-2" d="M332.28,87.45c0-.49.4-.89.89-.89s.89.4.89.89-.4.89-.89.89-.89-.4-.89-.89Z"/>
        </g>
        <g>
          <path class="cls-2" d="M332.28,91.19c0-.49.4-.89.89-.89.49,0,.89.4.89.89s-.4.89-.89.89c-.49,0-.89-.4-.89-.89Z"/>
          <path class="cls-2" d="M332.28,75.96c0-.49.4-.89.89-.89s.89.4.89.89-.4.89-.89.89-.89-.4-.89-.89Z"/>
          <path class="cls-2" d="M332.28,83.58c0-.49.4-.89.89-.89s.89.4.89.89c0,.49-.4.89-.89.89s-.89-.4-.89-.89Z"/>
        </g>
      </g>
      <g>
        <path class="cls-2" d="M322.13,68.23c.49,0,.89.4.89.89,0,.49-.4.89-.89.89-.49,0-.89-.4-.89-.89,0-.49.4-.89.89-.89Z"/>
        <path class="cls-2" d="M337.36,68.23c.49,0,.89.4.89.89s-.4.89-.89.89-.89-.4-.89-.89.4-.89.89-.89Z"/>
        <path class="cls-2" d="M329.74,68.23c.49,0,.89.4.89.89,0,.49-.4.89-.89.89s-.89-.4-.89-.89.4-.89.89-.89Z"/>
      </g>
    </g>
  </g>
  <path class="cls-2" d="M62.18,91.95l-1.62,7.14-1.36-.35c-.82-.21-1.65.28-1.86,1.1l-.41,1.61c-.21.82.28,1.65,1.1,1.86l5.25,1.34c.82.21,1.65-.28,1.86-1.1l.41-1.61c.21-.82-.28-1.65-1.1-1.86l-1.55-.4,1.64-7.21-2.36-.53Z"/>
  <path class="cls-8" d="M41.15,82.8c-3.6.86-3.6,5.99,0,6.85l60.74,16.95c1.64.44,3.39,0,4.58-1.15l7.58-8.51c.83-.8,1.95-1.28,3.13-1.34l5.51-.29v-18.17s-5.51-.29-5.51-.29c-1.19-.06-2.3-.54-3.13-1.34l-7.58-8.51c-1.19-1.15-2.94-1.59-4.58-1.16l-60.74,16.95Z"/>
  <path class="cls-5" d="M63.16,88.43h5.5v2.1c0,1.07-.87,1.93-1.93,1.93h-1.63c-1.07,0-1.93-.87-1.93-1.93v-2.1h0Z" transform="translate(-24.54 156.36) rotate(-90)"/>
  <path class="cls-5" d="M76.87,91.92h5.5v2.1c0,1.07-.87,1.93-1.93,1.93h-1.63c-1.07,0-1.93-.87-1.93-1.93v-2.1h0Z" transform="translate(-14.31 173.56) rotate(-90)"/>
  <path class="cls-5" d="M92.52,95.41h5.5v2.1c0,1.07-.87,1.93-1.93,1.93h-1.63c-1.07,0-1.93-.87-1.93-1.93v-2.1h0Z" transform="translate(-2.15 192.69) rotate(-90)"/>
  <path class="cls-3" d="M399.46,98.34h6.09c.28,0,.51-.35.51-.78v-23.13c0-.43-.23-.78-.51-.78h-6.22c-.28,0-.51.35-.51.79l.13,23.13c0,.43.23.77.51.77Z"/>
  <path class="cls-1" d="M123.57,76.23h177.48c.65,0,1.16.55,1.16,1.23v17.49c0,.68-.52,1.23-1.16,1.23H123.57s0-19.96,0-19.96Z"/>
  <path class="cls-2" d="M126.8,76.19v20h-3.23c-.7,0-1.26-.56-1.26-1.26v-17.48c0-.7.56-1.26,1.26-1.26h3.23Z"/>
  <path class="cls-4" d="M399.52,93.33v1.29c0,.33.26.59.59.59h2.07c.33,0,.59-.26.59-.59v-.13h1.59c.26,0,.47-.21.47-.47v-.09c0-.26-.21-.47-.47-.47h-1.59v-.13c0-.33-.26-.59-.59-.59h-2.07c-.33,0-.59.26-.59.59Z"/>
  <path class="cls-4" d="M399.52,90.17v1.29c0,.33.26.59.59.59h2.07c.33,0,.59-.26.59-.59v-.13h1.59c.26,0,.47-.21.47-.47v-.09c0-.26-.21-.47-.47-.47h-1.59s0-.13,0-.13c0-.33-.26-.59-.59-.59h-2.07c-.33,0-.59.26-.59.59Z"/>
  <path class="cls-4" d="M399.52,87.01v1.29c0,.33.26.59.59.59h2.07c.33,0,.59-.26.59-.59v-.13s1.59,0,1.59,0c.26,0,.47-.21.47-.47v-.09c0-.26-.21-.47-.47-.47h-1.59s0-.13,0-.13c0-.33-.26-.59-.59-.59h-2.07c-.33,0-.59.26-.59.59Z"/>
  <path class="cls-4" d="M399.52,83.86v1.29c0,.33.26.59.59.59h2.07c.33,0,.59-.26.59-.59v-.13h1.59c.26,0,.47-.21.47-.47v-.09c0-.26-.21-.47-.47-.47h-1.59s0-.13,0-.13c0-.33-.26-.59-.59-.59h-2.07c-.33,0-.59.26-.59.59Z"/>
  <path class="cls-4" d="M399.52,80.83v1.29c0,.33.26.59.59.59h2.07c.33,0,.59-.26.59-.59v-.13h1.59c.26,0,.47-.21.47-.47v-.09c0-.26-.21-.47-.47-.47h-1.59v-.13c0-.33-.26-.59-.59-.59h-2.07c-.33,0-.59.26-.59.59Z"/>
  <path class="cls-4" d="M399.52,77.74v1.29c0,.33.26.59.59.59h2.07c.33,0,.59-.26.59-.59v-.13h1.59c.26,0,.47-.21.47-.47v-.09c0-.26-.21-.47-.47-.47h-1.59v-.13c0-.33-.26-.59-.59-.59h-2.07c-.33,0-.59.26-.59.59Z"/>
  <path class="cls-9" d="M123.32,93.67v.5s.7.02.7.02h277.08c.14,0,.25-.11.25-.25s-.11-.25-.25-.25H123.99s-.67-.02-.67-.02Z"/>
  <path class="cls-6" d="M123.32,90.56v.49s.73.02.73.02h277.05c.14,0,.25-.11.25-.25,0-.14-.11-.25-.25-.25H124.02s-.04,0-.06,0l-.64-.02Z"/>
  <path class="cls-9" d="M123.32,87.45v.48s.74.02.74.02h277.04c.14,0,.25-.11.25-.25s-.11-.25-.25-.25H124.02s-.06,0-.08.01h-.62Z"/>
  <path class="cls-9" d="M123.32,84.81h.64s.04.02.06.02h277.08c.14,0,.25-.11.25-.25s-.11-.25-.25-.25H124.05s-.73-.01-.73-.01v.5Z"/>
  <path class="cls-6" d="M123.32,81.21v.5s.7,0,.7,0h277.08c.14,0,.25-.11.25-.25,0-.14-.11-.25-.25-.25H124.07s-.75,0-.75,0Z"/>
  <path class="cls-9" d="M123.32,78.1v.5s.7-.01.7-.01h277.08c.14,0,.25-.11.25-.25,0-.14-.11-.25-.25-.25H124.05s-.72.01-.72.01Z"/>
  <rect class="cls-9" x="287.54" y="85.82" width="19.96" height=".79" transform="translate(211.31 383.73) rotate(-90)"/>
  <rect class="cls-9" x="284.55" y="85.82" width="19.96" height=".79" transform="translate(208.32 380.74) rotate(-90)"/>
  <rect class="cls-9" x="281.35" y="85.82" width="19.96" height=".79" transform="translate(205.12 377.54) rotate(-90)"/>
  <rect class="cls-9" x="277.33" y="85.82" width="19.96" height=".79" transform="translate(201.09 373.51) rotate(-90)"/>
  <rect class="cls-9" x="272.51" y="85.82" width="19.96" height=".79" transform="translate(196.28 368.7) rotate(-90)"/>
  <rect class="cls-9" x="267.76" y="85.82" width="19.96" height=".79" transform="translate(191.52 363.95) rotate(-90)"/>
  <rect class="cls-9" x="263.54" y="85.82" width="19.96" height=".79" transform="translate(187.31 359.73) rotate(-90)"/>
  <rect class="cls-9" x="258.54" y="85.82" width="19.96" height=".79" transform="translate(182.3 354.73) rotate(-90)"/>
  <rect class="cls-9" x="253.76" y="85.82" width="19.96" height=".79" transform="translate(177.52 349.95) rotate(-90)"/>
  <rect class="cls-9" x="248.2" y="85.82" width="19.96" height=".79" transform="translate(171.96 344.38) rotate(-90)"/>
  <rect class="cls-9" x="242.86" y="85.82" width="19.96" height=".79" transform="translate(166.62 339.05) rotate(-90)"/>
  <rect class="cls-9" x="237.13" y="85.82" width="19.96" height=".79" transform="translate(160.89 333.31) rotate(-90)"/>
  <rect class="cls-9" x="230.58" y="85.82" width="19.96" height=".79" transform="translate(154.35 326.77) rotate(-90)"/>
  <rect class="cls-9" x="224.04" y="85.82" width="19.96" height=".79" transform="translate(147.81 320.23) rotate(-90)"/>
  <rect class="cls-9" x="216.42" y="85.82" width="19.96" height=".79" transform="translate(140.19 312.61) rotate(-90)"/>
  <rect class="cls-9" x="209.4" y="85.82" width="19.96" height=".79" transform="translate(133.17 305.59) rotate(-90)"/>
  <rect class="cls-9" x="201.24" y="85.82" width="19.96" height=".79" transform="translate(125.01 297.43) rotate(-90)"/>
  <rect class="cls-9" x="192.31" y="85.82" width="19.96" height=".79" transform="translate(116.08 288.5) rotate(-90)"/>
  <rect class="cls-9" x="183.03" y="85.82" width="19.96" height=".79" transform="translate(106.8 279.22) rotate(-90)"/>
  <rect class="cls-9" x="173.83" y="85.82" width="19.96" height=".79" transform="translate(97.6 270.02) rotate(-90)"/>
  <rect class="cls-9" x="163.16" y="85.82" width="19.96" height=".79" transform="translate(86.93 259.35) rotate(-90)"/>
  <rect class="cls-9" x="152.38" y="85.82" width="19.96" height=".79" transform="translate(76.15 248.57) rotate(-90)"/>
  <rect class="cls-9" x="141.04" y="85.82" width="19.96" height=".79" transform="translate(64.81 237.23) rotate(-90)"/>
  <rect class="cls-9" x="129.54" y="85.82" width="19.96" height=".79" transform="translate(53.3 225.73) rotate(-90)"/>
  <line class="cls-10" x1="123.63" y1="93.93" x2="93.25" y2="97.42"/>
  <line class="cls-10" x1="123.57" y1="90.82" x2="77.45" y2="93.89"/>
  <line class="cls-10" x1="123.57" y1="87.7" x2="63.74" y2="90.41"/>
  <path class="cls-6" d="M63.15,93.1c1.48.41,3.02-.44,3.43-1.9.41-1.47-.46-2.98-1.94-3.39-1.48-.41-3.01.45-3.42,1.91-.41,1.46.46,2.98,1.94,3.39Z"/>
  <path class="cls-2" d="M63.21,87.8c1.48.41,2.36,1.93,1.94,3.39-.27.98-1.05,1.67-1.98,1.91,1.47.39,2.99-.45,3.4-1.91.41-1.47-.46-2.98-1.94-3.39-.49-.13-.98-.12-1.43,0,0,0,.01,0,.02,0Z"/>
  <path class="cls-9" d="M76.85,96.6c1.51.42,3.07-.44,3.49-1.91.42-1.48-.47-3.01-1.98-3.43-1.51-.41-3.07.45-3.48,1.92-.42,1.47.47,3,1.97,3.42Z"/>
  <path class="cls-2" d="M78.75,94.69c-.27.96-1.02,1.64-1.93,1.9,0,0,.02,0,.03.01,1.51.42,3.07-.44,3.49-1.91.42-1.48-.47-3.01-1.98-3.43-.53-.15-1.06-.13-1.55.01,1.49.43,2.36,1.95,1.94,3.41Z"/>
  <path class="cls-6" d="M92.48,100.11c1.54.43,3.13-.43,3.55-1.92.43-1.49-.48-3.04-2.02-3.46-1.54-.42-3.12.44-3.54,1.93-.42,1.48.47,3.03,2.01,3.46Z"/>
  <path class="cls-2" d="M94.39,98.19c-.27.96-1.03,1.65-1.94,1.91.01,0,.02,0,.03.01,1.54.43,3.13-.43,3.55-1.92.43-1.49-.48-3.04-2.02-3.46-.55-.15-1.1-.13-1.6.02,1.51.44,2.4,1.97,1.98,3.45Z"/>
  <path class="cls-5" d="M65.09,79.82h1.63c1.07,0,1.93.87,1.93,1.93v2.1h-5.5v-2.1c0-1.07.87-1.93,1.93-1.93Z" transform="translate(147.75 15.93) rotate(90)"/>
  <path class="cls-5" d="M78.81,76.34h1.63c1.07,0,1.93.87,1.93,1.93v2.1h-5.5v-2.1c0-1.07.87-1.93,1.93-1.93Z" transform="translate(157.98 -1.27) rotate(90)"/>
  <path class="cls-5" d="M94.45,72.85h1.63c1.07,0,1.93.87,1.93,1.93v2.1h-5.5v-2.1c0-1.07.87-1.93,1.93-1.93Z" transform="translate(170.13 -20.41) rotate(90)"/>
  <line class="cls-10" x1="123.63" y1="78.35" x2="93.25" y2="74.86"/>
  <line class="cls-10" x1="123.57" y1="81.47" x2="77.45" y2="78.4"/>
  <line class="cls-10" x1="123.57" y1="84.59" x2="63.74" y2="81.88"/>
  <path class="cls-6" d="M63.15,79.19c1.48-.41,3.02.44,3.43,1.9.41,1.47-.46,2.98-1.94,3.39-1.48.41-3.01-.45-3.42-1.91-.41-1.46.46-2.98,1.94-3.39Z"/>
  <path class="cls-2" d="M63.21,84.49c1.48-.41,2.36-1.93,1.94-3.39-.27-.98-1.05-1.67-1.98-1.91,1.47-.39,2.99.45,3.4,1.91.41,1.47-.46,2.98-1.94,3.39-.49.13-.98.12-1.43,0,0,0,.01,0,.02,0Z"/>
  <path class="cls-9" d="M76.85,75.68c1.51-.42,3.07.44,3.49,1.91.42,1.48-.47,3.01-1.98,3.43-1.51.41-3.07-.45-3.48-1.92-.42-1.47.47-3,1.97-3.42Z"/>
  <path class="cls-2" d="M78.75,77.6c-.27-.96-1.02-1.64-1.93-1.9,0,0,.02,0,.03-.01,1.51-.42,3.07.44,3.49,1.91.42,1.48-.47,3.01-1.98,3.43-.53.15-1.06.13-1.55-.01,1.49-.43,2.36-1.95,1.94-3.41Z"/>
  <path class="cls-6" d="M92.48,72.17c1.54-.43,3.13.43,3.55,1.92.43,1.49-.48,3.04-2.02,3.46-1.54.42-3.12-.44-3.54-1.93-.42-1.48.47-3.03,2.01-3.46Z"/>
  <path class="cls-2" d="M94.39,74.1c-.27-.96-1.03-1.65-1.94-1.91.01,0,.02,0,.03-.01,1.54-.43,3.13.43,3.55,1.92.43,1.49-.48,3.04-2.02,3.46-.55.15-1.1.13-1.6-.02,1.51-.44,2.4-1.97,1.98-3.45Z"/>
  <g>
    <path class="cls-2" d="M389.98,41.72c2.35.03,4.24,1.96,4.21,4.31-.03,2.35-1.96,4.24-4.31,4.21-2.35-.03-4.24-1.96-4.21-4.31.03-2.35,1.96-4.24,4.31-4.21Z"/>
    <path class="cls-2" d="M402.48,36.24c2.35.03,4.24,1.96,4.21,4.31-.03,2.35-1.96,4.24-4.31,4.21-2.35-.03-4.24-1.96-4.21-4.31.03-2.35,1.96-4.24,4.31-4.21Z"/>
    <path class="cls-2" d="M414.98,30.76c2.35.03,4.24,1.96,4.21,4.31-.03,2.35-1.96,4.24-4.31,4.21-2.35-.03-4.24-1.96-4.21-4.31.03-2.35,1.96-4.24,4.31-4.21Z"/>
  </g>
</svg>