<?xml version="1.0" encoding="UTF-8"?>
<svg id="OBJECTS" xmlns="http://www.w3.org/2000/svg" viewBox="0 0 510 156">
  <defs>
    <style>
      .cls-1 {
        fill: #000;
      }

      .cls-1, .cls-2, .cls-3, .cls-4, .cls-5, .cls-6, .cls-7, .cls-8, .cls-9 {
        stroke-width: 0px;
      }

      .cls-2 {
        fill: #c09fc9;
      }

      .cls-3 {
        fill: #95979a;
      }

      .cls-4 {
        fill: #35393a;
      }

      .cls-5 {
        fill: #8c0000;
      }

      .cls-6 {
        fill: #f9f8f1;
      }

      .cls-7 {
        fill: #930000;
      }

      .cls-8 {
        fill: #df3838;
      }

      .cls-10 {
        fill: none;
        stroke: #fff;
        stroke-miterlimit: 10;
        stroke-width: .4px;
      }

      .cls-9 {
        fill: #fff;
      }
    </style>
  </defs>
  <path class="cls-8" d="M41.97.81l191.65,70.84c1.47.43,2.49,1.77,2.53,3.3l.3,10.49h.04s-.02.76-.02.76l.02.76h-.04s-.3,10.49-.3,10.49c-.04,1.53-1.06,2.87-2.53,3.3l-172.46,54.42c-2.42.71-4.43-1.94-3.09-4.08l27.24-58.81c2.33-3.73,2.33-8.46,0-12.19L38.88,4.89c-1.34-2.13.68-4.79,3.09-4.08Z"/>
  <path class="cls-7" d="M47.03,2.68c-.21.69-.15,1.48.31,2.2l46.43,75.23c2.33,3.73,2.33,8.46,0,12.19l-27.24,58.81c-.51.81-.53,1.7-.23,2.45l-5.15,1.62c-2.41.71-4.43-1.94-3.09-4.08l27.24-58.81c2.33-3.73,2.33-8.46,0-12.19L38.88,4.89c-1.34-2.13.68-4.79,3.09-4.08l5.06,1.87Z"/>
  <path class="cls-6" d="M232.26,78.09s1-3.09-4.36-5.03c-4.86-1.76-75.02-27.04-88.2-31.79-1.04-.37-2.13.4-2.13,1.5v43.79s94.69,0,94.69,0v-8.47Z"/>
  <path class="cls-2" d="M416.82,72.64l1.62-7.14,1.36.35c.82.21,1.65-.28,1.86-1.1l.41-1.61c.21-.82-.28-1.65-1.1-1.86l-5.25-1.34c-.82-.21-1.65.28-1.86,1.1l-.41,1.61c-.21.82.28,1.65,1.1,1.86l1.55.4-1.64,7.21,2.36.53Z"/>
  <path class="cls-2" d="M432.59,76.5l1.62-7.14,1.36.35c.82.21,1.65-.28,1.86-1.1l.41-1.61c.21-.82-.28-1.65-1.1-1.86l-5.25-1.34c-.82-.21-1.65.28-1.86,1.1l-.41,1.61c-.21.82.28,1.65,1.1,1.86l1.55.4-1.64,7.21,2.36.53Z"/>
  <path class="cls-2" d="M447.82,80.34l1.62-7.14,1.36.35c.82.21,1.65-.28,1.86-1.1l.41-1.61c.21-.82-.28-1.65-1.1-1.86l-5.25-1.34c-.82-.21-1.65.28-1.86,1.1l-.41,1.61c-.21.82.28,1.65,1.1,1.86l1.55.4-1.64,7.21,2.36.53Z"/>
  <path class="cls-2" d="M416.82,99.65l1.62,7.14,1.36-.35c.82-.21,1.65.28,1.86,1.1l.41,1.61c.21.82-.28,1.65-1.1,1.86l-5.25,1.34c-.82.21-1.65-.28-1.86-1.1l-.41-1.61c-.21-.82.28-1.65,1.1-1.86l1.55-.4-1.64-7.21,2.36-.53Z"/>
  <path class="cls-2" d="M432.59,95.79l1.62,7.14,1.36-.35c.82-.21,1.65.28,1.86,1.1l.41,1.61c.21.82-.28,1.65-1.1,1.86l-5.25,1.34c-.82.21-1.65-.28-1.86-1.1l-.41-1.61c-.21-.82.28-1.65,1.1-1.86l1.55-.4-1.64-7.21,2.36-.53Z"/>
  <path class="cls-5" d="M167.87,69.61v31.85c0,1.16.94,2.1,2.09,2.1h7.45s0-36.04,0-36.04h-7.45c-1.16,0-2.09.94-2.09,2.1Z"/>
  <path class="cls-5" d="M160.33,100.01h-2.28c-.93,0-1.68-.75-1.68-1.68v-25.57c0-.93.75-1.68,1.68-1.68h2.28v28.93Z"/>
  <path class="cls-5" d="M131.44,69.61v31.85c0,1.16.94,2.1,2.09,2.1h7.45s0-36.04,0-36.04h-7.45c-1.16,0-2.1.94-2.09,2.09Z"/>
  <path class="cls-5" d="M205.11,77.62v17.18c0,.77.62,1.39,1.39,1.39h4.18s0-19.96,0-19.96h-4.18c-.77,0-1.39.62-1.39,1.39Z"/>
  <g>
    <g>
      <path class="cls-2" d="M158.1,73.47v24.14c0,1.32,1.07,2.39,2.39,2.39h0c1.32,0,2.39-1.07,2.39-2.39v-24.14c0-1.32-1.07-2.39-2.39-2.39h0c-1.32,0-2.39,1.07-2.39,2.39Z"/>
      <g>
        <g>
          <path class="cls-2" d="M161.39,95.07c0-.49-.4-.89-.89-.89-.49,0-.89.4-.89.89,0,.49.4.89.89.89.49,0,.89-.4.89-.89Z"/>
          <path class="cls-2" d="M161.39,79.84c0-.49-.4-.89-.89-.89-.49,0-.89.4-.89.89,0,.49.4.89.89.89.49,0,.89-.4.89-.89Z"/>
          <path class="cls-2" d="M161.39,87.45c0-.49-.4-.89-.89-.89s-.89.4-.89.89c0,.49.4.89.89.89.49,0,.89-.4.89-.89Z"/>
        </g>
        <g>
          <path class="cls-2" d="M161.39,91.19c0-.49-.4-.89-.89-.89s-.89.4-.89.89.4.89.89.89.89-.4.89-.89Z"/>
          <path class="cls-2" d="M161.39,75.96c0-.49-.4-.89-.89-.89s-.89.4-.89.89c0,.49.4.89.89.89.49,0,.89-.4.89-.89Z"/>
          <path class="cls-2" d="M161.39,83.58c0-.49-.4-.89-.89-.89-.49,0-.89.4-.89.89s.4.89.89.89c.49,0,.89-.4.89-.89Z"/>
        </g>
      </g>
    </g>
    <g>
      <rect class="cls-2" x="133.85" y="67.52" width="19.09" height="36.04" rx="1.22" ry="1.22"/>
      <rect class="cls-2" x="136.68" y="70.52" width="13.44" height="30.05" rx="1.22" ry="1.22"/>
      <g>
        <path class="cls-2" d="M144.43,73.47v24.14c0,1.32,1.07,2.39,2.39,2.39h0c1.32,0,2.39-1.07,2.39-2.39v-24.14c0-1.32-1.07-2.39-2.39-2.39h0c-1.32,0-2.39,1.07-2.39,2.39Z"/>
        <path class="cls-2" d="M137.57,73.47v24.14c0,1.32,1.07,2.39,2.39,2.39h0c1.32,0,2.39-1.07,2.39-2.39v-24.14c0-1.32-1.07-2.39-2.39-2.39h0c-1.32,0-2.39,1.07-2.39,2.39Z"/>
      </g>
      <g>
        <path class="cls-2" d="M151.01,101.06c-.49,0-.89.4-.89.89s.4.89.89.89c.49,0,.89-.4.89-.89,0-.49-.4-.89-.89-.89Z"/>
        <path class="cls-2" d="M135.78,101.06c-.49,0-.89.4-.89.89s.4.89.89.89c.49,0,.89-.4.89-.89s-.4-.89-.89-.89Z"/>
        <path class="cls-2" d="M143.4,101.06c-.49,0-.89.4-.89.89,0,.49.4.89.89.89s.89-.4.89-.89c0-.49-.4-.89-.89-.89Z"/>
      </g>
      <g>
        <g>
          <path class="cls-2" d="M147.72,95.07c0-.49-.4-.89-.89-.89-.49,0-.89.4-.89.89,0,.49.4.89.89.89.49,0,.89-.4.89-.89Z"/>
          <path class="cls-2" d="M147.72,79.84c0-.49-.4-.89-.89-.89-.49,0-.89.4-.89.89,0,.49.4.89.89.89s.89-.4.89-.89Z"/>
          <path class="cls-2" d="M147.72,87.45c0-.49-.4-.89-.89-.89s-.89.4-.89.89c0,.49.4.89.89.89.49,0,.89-.4.89-.89Z"/>
        </g>
        <g>
          <path class="cls-2" d="M147.72,91.19c0-.49-.4-.89-.89-.89-.49,0-.89.4-.89.89,0,.49.4.89.89.89s.89-.4.89-.89Z"/>
          <path class="cls-2" d="M147.72,75.96c0-.49-.4-.89-.89-.89s-.89.4-.89.89c0,.49.4.89.89.89.49,0,.89-.4.89-.89Z"/>
          <path class="cls-2" d="M147.72,83.58c0-.49-.4-.89-.89-.89-.49,0-.89.4-.89.89,0,.49.4.89.89.89.49,0,.89-.4.89-.89Z"/>
        </g>
      </g>
      <g>
        <g>
          <path class="cls-2" d="M140.86,95.07c0-.49-.4-.89-.89-.89-.49,0-.89.4-.89.89,0,.49.4.89.89.89s.89-.4.89-.89Z"/>
          <path class="cls-2" d="M140.86,79.84c0-.49-.4-.89-.89-.89s-.89.4-.89.89.4.89.89.89c.49,0,.89-.4.89-.89Z"/>
          <path class="cls-2" d="M140.86,87.45c0-.49-.4-.89-.89-.89s-.89.4-.89.89.4.89.89.89.89-.4.89-.89Z"/>
        </g>
        <g>
          <path class="cls-2" d="M140.86,91.19c0-.49-.4-.89-.89-.89-.49,0-.89.4-.89.89s.4.89.89.89c.49,0,.89-.4.89-.89Z"/>
          <path class="cls-2" d="M140.86,75.96c0-.49-.4-.89-.89-.89s-.89.4-.89.89.4.89.89.89.89-.4.89-.89Z"/>
          <path class="cls-2" d="M140.86,83.58c0-.49-.4-.89-.89-.89-.49,0-.89.4-.89.89,0,.49.4.89.89.89s.89-.4.89-.89Z"/>
        </g>
      </g>
      <g>
        <path class="cls-2" d="M151.01,68.23c-.49,0-.89.4-.89.89,0,.49.4.89.89.89.49,0,.89-.4.89-.89,0-.49-.4-.89-.89-.89Z"/>
        <path class="cls-2" d="M135.78,68.23c-.49,0-.89.4-.89.89s.4.89.89.89.89-.4.89-.89-.4-.89-.89-.89Z"/>
        <path class="cls-2" d="M143.4,68.23c-.49,0-.89.4-.89.89,0,.49.4.89.89.89s.89-.4.89-.89-.4-.89-.89-.89Z"/>
      </g>
    </g>
    <g>
      <rect class="cls-2" x="170.72" y="67.52" width="19.09" height="36.04" rx="1.22" ry="1.22"/>
      <rect class="cls-2" x="173.54" y="70.52" width="13.44" height="30.05" rx="1.22" ry="1.22"/>
      <g>
        <path class="cls-2" d="M181.29,73.47v24.14c0,1.32,1.07,2.39,2.39,2.39h0c1.32,0,2.39-1.07,2.39-2.39v-24.14c0-1.32-1.07-2.39-2.39-2.39h0c-1.32,0-2.39,1.07-2.39,2.39Z"/>
        <path class="cls-2" d="M174.44,73.47v24.14c0,1.32,1.07,2.39,2.39,2.39h0c1.32,0,2.39-1.07,2.39-2.39v-24.14c0-1.32-1.07-2.39-2.39-2.39h0c-1.32,0-2.39,1.07-2.39,2.39Z"/>
      </g>
      <g>
        <path class="cls-2" d="M187.87,101.06c-.49,0-.89.4-.89.89s.4.89.89.89c.49,0,.89-.4.89-.89,0-.49-.4-.89-.89-.89Z"/>
        <path class="cls-2" d="M172.64,101.06c-.49,0-.89.4-.89.89,0,.49.4.89.89.89.49,0,.89-.4.89-.89,0-.49-.4-.89-.89-.89Z"/>
        <path class="cls-2" d="M180.26,101.06c-.49,0-.89.4-.89.89,0,.49.4.89.89.89.49,0,.89-.4.89-.89,0-.49-.4-.89-.89-.89Z"/>
      </g>
      <g>
        <g>
          <path class="cls-2" d="M184.58,95.07c0-.49-.4-.89-.89-.89-.49,0-.89.4-.89.89,0,.49.4.89.89.89.49,0,.89-.4.89-.89Z"/>
          <path class="cls-2" d="M184.58,79.84c0-.49-.4-.89-.89-.89-.49,0-.89.4-.89.89,0,.49.4.89.89.89s.89-.4.89-.89Z"/>
          <path class="cls-2" d="M184.58,87.45c0-.49-.4-.89-.89-.89-.49,0-.89.4-.89.89,0,.49.4.89.89.89.49,0,.89-.4.89-.89Z"/>
        </g>
        <g>
          <path class="cls-2" d="M184.58,91.19c0-.49-.4-.89-.89-.89-.49,0-.89.4-.89.89,0,.49.4.89.89.89s.89-.4.89-.89Z"/>
          <path class="cls-2" d="M184.58,75.96c0-.49-.4-.89-.89-.89-.49,0-.89.4-.89.89s.4.89.89.89c.49,0,.89-.4.89-.89Z"/>
          <path class="cls-2" d="M184.58,83.58c0-.49-.4-.89-.89-.89-.49,0-.89.4-.89.89,0,.49.4.89.89.89.49,0,.89-.4.89-.89Z"/>
        </g>
      </g>
      <g>
        <g>
          <path class="cls-2" d="M177.72,95.07c0-.49-.4-.89-.89-.89s-.89.4-.89.89c0,.49.4.89.89.89s.89-.4.89-.89Z"/>
          <path class="cls-2" d="M177.72,79.84c0-.49-.4-.89-.89-.89s-.89.4-.89.89.4.89.89.89c.49,0,.89-.4.89-.89Z"/>
          <path class="cls-2" d="M177.72,87.45c0-.49-.4-.89-.89-.89s-.89.4-.89.89.4.89.89.89.89-.4.89-.89Z"/>
        </g>
        <g>
          <path class="cls-2" d="M177.72,91.19c0-.49-.4-.89-.89-.89-.49,0-.89.4-.89.89s.4.89.89.89c.49,0,.89-.4.89-.89Z"/>
          <path class="cls-2" d="M177.72,75.96c0-.49-.4-.89-.89-.89s-.89.4-.89.89.4.89.89.89.89-.4.89-.89Z"/>
          <path class="cls-2" d="M177.72,83.58c0-.49-.4-.89-.89-.89s-.89.4-.89.89c0,.49.4.89.89.89s.89-.4.89-.89Z"/>
        </g>
      </g>
      <g>
        <path class="cls-2" d="M187.87,68.23c-.49,0-.89.4-.89.89,0,.49.4.89.89.89.49,0,.89-.4.89-.89,0-.49-.4-.89-.89-.89Z"/>
        <path class="cls-2" d="M172.64,68.23c-.49,0-.89.4-.89.89s.4.89.89.89.89-.4.89-.89-.4-.89-.89-.89Z"/>
        <path class="cls-2" d="M180.26,68.23c-.49,0-.89.4-.89.89,0,.49.4.89.89.89s.89-.4.89-.89-.4-.89-.89-.89Z"/>
      </g>
    </g>
  </g>
  <path class="cls-2" d="M447.82,91.95l1.62,7.14,1.36-.35c.82-.21,1.65.28,1.86,1.1l.41,1.61c.21.82-.28,1.65-1.1,1.86l-5.25,1.34c-.82.21-1.65-.28-1.86-1.1l-.41-1.61c-.21-.82.28-1.65,1.1-1.86l1.55-.4-1.64-7.21,2.36-.53Z"/>
  <path class="cls-8" d="M468.85,82.8c3.6.86,3.6,5.99,0,6.85l-60.74,16.95c-1.64.44-3.39,0-4.58-1.15l-7.58-8.51c-.83-.8-1.95-1.28-3.13-1.34l-5.51-.29v-18.17s5.51-.29,5.51-.29c1.19-.06,2.3-.54,3.13-1.34l7.58-8.51c1.19-1.15,2.94-1.59,4.58-1.16l60.74,16.95Z"/>
  <path class="cls-5" d="M443.27,88.43h1.63c1.07,0,1.93.87,1.93,1.93v2.1h-5.5v-2.1c0-1.07.87-1.93,1.93-1.93Z" transform="translate(353.63 534.54) rotate(-90)"/>
  <path class="cls-5" d="M429.56,91.92h1.63c1.07,0,1.93.87,1.93,1.93v2.1h-5.5v-2.1c0-1.07.87-1.93,1.93-1.93Z" transform="translate(336.44 524.31) rotate(-90)"/>
  <path class="cls-5" d="M413.91,95.41h1.63c1.07,0,1.93.87,1.93,1.93v2.1h-5.5v-2.1c0-1.07.87-1.93,1.93-1.93Z" transform="translate(317.32 512.15) rotate(-90)"/>
  <path class="cls-3" d="M110.54,98.34h-6.09c-.28,0-.51-.35-.51-.78v-23.13c0-.43.23-.78.51-.78h6.22c.28,0,.51.35.51.79l-.13,23.13c0,.43-.23.77-.51.77Z"/>
  <path class="cls-1" d="M386.43,76.23h-177.48c-.65,0-1.16.55-1.16,1.23v17.49c0,.68.52,1.23,1.16,1.23h177.48s0-19.96,0-19.96Z"/>
  <path class="cls-2" d="M383.2,76.19v20h3.23c.7,0,1.26-.56,1.26-1.26v-17.48c0-.7-.56-1.26-1.26-1.26h-3.23Z"/>
  <path class="cls-4" d="M110.48,93.33v1.29c0,.33-.26.59-.59.59h-2.07c-.33,0-.59-.26-.59-.59v-.13h-1.59c-.26,0-.47-.21-.47-.47v-.09c0-.26.21-.47.47-.47h1.59v-.13c0-.33.26-.59.59-.59h2.07c.33,0,.59.26.59.59Z"/>
  <path class="cls-4" d="M110.48,90.17v1.29c0,.33-.26.59-.59.59h-2.07c-.33,0-.59-.26-.59-.59v-.13h-1.59c-.26,0-.47-.21-.47-.47v-.09c0-.26.21-.47.47-.47h1.59s0-.13,0-.13c0-.33.26-.59.59-.59h2.07c.33,0,.59.26.59.59Z"/>
  <path class="cls-4" d="M110.48,87.01v1.29c0,.33-.26.59-.59.59h-2.07c-.33,0-.59-.26-.59-.59v-.13s-1.59,0-1.59,0c-.26,0-.47-.21-.47-.47v-.09c0-.26.21-.47.47-.47h1.59s0-.13,0-.13c0-.33.26-.59.59-.59h2.07c.33,0,.59.26.59.59Z"/>
  <path class="cls-4" d="M110.48,83.86v1.29c0,.33-.26.59-.59.59h-2.07c-.33,0-.59-.26-.59-.59v-.13h-1.59c-.26,0-.47-.21-.47-.47v-.09c0-.26.21-.47.47-.47h1.59s0-.13,0-.13c0-.33.26-.59.59-.59h2.07c.33,0,.59.26.59.59Z"/>
  <path class="cls-4" d="M110.48,80.83v1.29c0,.33-.26.59-.59.59h-2.07c-.33,0-.59-.26-.59-.59v-.13h-1.59c-.26,0-.47-.21-.47-.47v-.09c0-.26.21-.47.47-.47h1.59v-.13c0-.33.26-.59.59-.59h2.07c.33,0,.59.26.59.59Z"/>
  <path class="cls-4" d="M110.48,77.74v1.29c0,.33-.26.59-.59.59h-2.07c-.33,0-.59-.26-.59-.59v-.13h-1.59c-.26,0-.47-.21-.47-.47v-.09c0-.26.21-.47.47-.47h1.59v-.13c0-.33.26-.59.59-.59h2.07c.33,0,.59.26.59.59Z"/>
  <path class="cls-9" d="M386.68,93.67v.5s-.7.02-.7.02H108.89c-.14,0-.25-.11-.25-.25s.11-.25.25-.25h277.12s.67-.02.67-.02Z"/>
  <path class="cls-6" d="M386.68,90.56v.49s-.73.02-.73.02H108.89c-.14,0-.25-.11-.25-.25,0-.14.11-.25.25-.25h277.08s.04,0,.06,0l.64-.02Z"/>
  <path class="cls-9" d="M386.68,87.45v.48s-.74.02-.74.02H108.89c-.14,0-.25-.11-.25-.25s.11-.25.25-.25h277.08s.06,0,.08.01h.62Z"/>
  <path class="cls-9" d="M386.68,84.81h-.64s-.04.02-.06.02H108.89c-.14,0-.25-.11-.25-.25s.11-.25.25-.25h277.05s.73-.01.73-.01v.5Z"/>
  <path class="cls-6" d="M386.68,81.21v.5s-.7,0-.7,0H108.89c-.14,0-.25-.11-.25-.25,0-.14.11-.25.25-.25h277.04s.75,0,.75,0Z"/>
  <path class="cls-9" d="M386.68,78.1v.5s-.7-.01-.7-.01H108.89c-.14,0-.25-.11-.25-.25,0-.14.11-.25.25-.25h277.06s.72.01.72.01Z"/>
  <rect class="cls-9" x="202.5" y="85.82" width="19.96" height=".79" transform="translate(126.27 298.69) rotate(-90)"/>
  <rect class="cls-9" x="205.49" y="85.82" width="19.96" height=".79" transform="translate(129.26 301.68) rotate(-90)"/>
  <rect class="cls-9" x="208.69" y="85.82" width="19.96" height=".79" transform="translate(132.46 304.88) rotate(-90)"/>
  <rect class="cls-9" x="212.72" y="85.82" width="19.96" height=".79" transform="translate(136.49 308.91) rotate(-90)"/>
  <rect class="cls-9" x="217.53" y="85.82" width="19.96" height=".79" transform="translate(141.3 313.72) rotate(-90)"/>
  <rect class="cls-9" x="222.29" y="85.82" width="19.96" height=".79" transform="translate(146.05 318.48) rotate(-90)"/>
  <rect class="cls-9" x="226.5" y="85.82" width="19.96" height=".79" transform="translate(150.27 322.69) rotate(-90)"/>
  <rect class="cls-9" x="231.51" y="85.82" width="19.96" height=".79" transform="translate(155.27 327.7) rotate(-90)"/>
  <rect class="cls-9" x="236.29" y="85.82" width="19.96" height=".79" transform="translate(160.05 332.48) rotate(-90)"/>
  <rect class="cls-9" x="241.85" y="85.82" width="19.96" height=".79" transform="translate(165.62 338.04) rotate(-90)"/>
  <rect class="cls-9" x="247.19" y="85.82" width="19.96" height=".79" transform="translate(170.95 343.38) rotate(-90)"/>
  <rect class="cls-9" x="252.92" y="85.82" width="19.96" height=".79" transform="translate(176.69 349.11) rotate(-90)"/>
  <rect class="cls-9" x="259.46" y="85.82" width="19.96" height=".79" transform="translate(183.23 355.65) rotate(-90)"/>
  <rect class="cls-9" x="266" y="85.82" width="19.96" height=".79" transform="translate(189.77 362.19) rotate(-90)"/>
  <rect class="cls-9" x="273.62" y="85.82" width="19.96" height=".79" transform="translate(197.39 369.81) rotate(-90)"/>
  <rect class="cls-9" x="280.64" y="85.82" width="19.96" height=".79" transform="translate(204.41 376.83) rotate(-90)"/>
  <rect class="cls-9" x="288.8" y="85.82" width="19.96" height=".79" transform="translate(212.57 384.99) rotate(-90)"/>
  <rect class="cls-9" x="297.73" y="85.82" width="19.96" height=".79" transform="translate(221.5 393.92) rotate(-90)"/>
  <rect class="cls-9" x="307.01" y="85.82" width="19.96" height=".79" transform="translate(230.78 403.2) rotate(-90)"/>
  <rect class="cls-9" x="316.22" y="85.82" width="19.96" height=".79" transform="translate(239.98 412.4) rotate(-90)"/>
  <rect class="cls-9" x="326.89" y="85.82" width="19.96" height=".79" transform="translate(250.65 423.07) rotate(-90)"/>
  <rect class="cls-9" x="337.67" y="85.82" width="19.96" height=".79" transform="translate(261.43 433.85) rotate(-90)"/>
  <rect class="cls-9" x="349" y="85.82" width="19.96" height=".79" transform="translate(272.77 445.19) rotate(-90)"/>
  <rect class="cls-9" x="360.51" y="85.82" width="19.96" height=".79" transform="translate(284.27 456.7) rotate(-90)"/>
  <line class="cls-10" x1="386.37" y1="93.93" x2="416.75" y2="97.42"/>
  <line class="cls-10" x1="386.43" y1="90.82" x2="432.55" y2="93.89"/>
  <line class="cls-10" x1="386.43" y1="87.7" x2="446.26" y2="90.41"/>
  <path class="cls-6" d="M446.85,93.1c-1.48.41-3.02-.44-3.43-1.9-.41-1.47.46-2.98,1.94-3.39,1.48-.41,3.01.45,3.42,1.91.41,1.46-.46,2.98-1.94,3.39Z"/>
  <path class="cls-2" d="M446.79,87.8c-1.48.41-2.36,1.93-1.94,3.39.27.98,1.05,1.67,1.98,1.91-1.47.39-2.99-.45-3.4-1.91-.41-1.47.46-2.98,1.94-3.39.49-.13.98-.12,1.43,0,0,0-.01,0-.02,0Z"/>
  <path class="cls-9" d="M433.15,96.6c-1.51.42-3.07-.44-3.49-1.91-.42-1.48.47-3.01,1.98-3.43,1.51-.41,3.07.45,3.48,1.92.42,1.47-.47,3-1.97,3.42Z"/>
  <path class="cls-2" d="M431.25,94.69c.27.96,1.02,1.64,1.93,1.9,0,0-.02,0-.03.01-1.51.42-3.07-.44-3.49-1.91-.42-1.48.47-3.01,1.98-3.43.53-.15,1.06-.13,1.55.01-1.49.43-2.36,1.95-1.94,3.41Z"/>
  <path class="cls-6" d="M417.52,100.11c-1.54.43-3.13-.43-3.55-1.92-.43-1.49.48-3.04,2.02-3.46,1.54-.42,3.12.44,3.54,1.93.42,1.48-.47,3.03-2.01,3.46Z"/>
  <path class="cls-2" d="M415.61,98.19c.27.96,1.03,1.65,1.94,1.91-.01,0-.02,0-.03.01-1.54.43-3.13-.43-3.55-1.92-.43-1.49.48-3.04,2.02-3.46.55-.15,1.1-.13,1.6.02-1.51.44-2.4,1.97-1.98,3.45Z"/>
  <path class="cls-5" d="M441.34,79.82h5.5v2.1c0,1.07-.87,1.93-1.93,1.93h-1.63c-1.07,0-1.93-.87-1.93-1.93v-2.1h0Z" transform="translate(525.92 -362.25) rotate(90)"/>
  <path class="cls-5" d="M427.63,76.34h5.5v2.1c0,1.07-.87,1.93-1.93,1.93h-1.63c-1.07,0-1.93-.87-1.93-1.93v-2.1h0Z" transform="translate(508.74 -352.02) rotate(90)"/>
  <path class="cls-5" d="M411.98,72.85h5.5v2.1c0,1.07-.87,1.93-1.93,1.93h-1.63c-1.07,0-1.93-.87-1.93-1.93v-2.1h0Z" transform="translate(489.6 -339.86) rotate(90)"/>
  <line class="cls-10" x1="386.37" y1="78.35" x2="416.75" y2="74.86"/>
  <line class="cls-10" x1="386.43" y1="81.47" x2="432.55" y2="78.4"/>
  <line class="cls-10" x1="386.43" y1="84.59" x2="446.26" y2="81.88"/>
  <path class="cls-6" d="M446.85,79.19c-1.48-.41-3.02.44-3.43,1.9-.41,1.47.46,2.98,1.94,3.39,1.48.41,3.01-.45,3.42-1.91.41-1.46-.46-2.98-1.94-3.39Z"/>
  <path class="cls-2" d="M446.79,84.49c-1.48-.41-2.36-1.93-1.94-3.39.27-.98,1.05-1.67,1.98-1.91-1.47-.39-2.99.45-3.4,1.91-.41,1.47.46,2.98,1.94,3.39.49.13.98.12,1.43,0,0,0-.01,0-.02,0Z"/>
  <path class="cls-9" d="M433.15,75.68c-1.51-.42-3.07.44-3.49,1.91-.42,1.48.47,3.01,1.98,3.43,1.51.41,3.07-.45,3.48-1.92.42-1.47-.47-3-1.97-3.42Z"/>
  <path class="cls-2" d="M431.25,77.6c.27-.96,1.02-1.64,1.93-1.9,0,0-.02,0-.03-.01-1.51-.42-3.07.44-3.49,1.91-.42,1.48.47,3.01,1.98,3.43.53.15,1.06.13,1.55-.01-1.49-.43-2.36-1.95-1.94-3.41Z"/>
  <path class="cls-6" d="M417.52,72.17c-1.54-.43-3.13.43-3.55,1.92-.43,1.49.48,3.04,2.02,3.46,1.54.42,3.12-.44,3.54-1.93.42-1.48-.47-3.03-2.01-3.46Z"/>
  <path class="cls-2" d="M415.61,74.1c.27-.96,1.03-1.65,1.94-1.91-.01,0-.02,0-.03-.01-1.54-.43-3.13.43-3.55,1.92-.43,1.49.48,3.04,2.02,3.46.55.15,1.1.13,1.6-.02-1.51-.44-2.4-1.97-1.98-3.45Z"/>
  <g>
    <path class="cls-2" d="M120.02,41.72c-2.35.03-4.24,1.96-4.21,4.31.03,2.35,1.96,4.24,4.31,4.21,2.35-.03,4.24-1.96,4.21-4.31-.03-2.35-1.96-4.24-4.31-4.21Z"/>
    <path class="cls-2" d="M107.52,36.24c-2.35.03-4.24,1.96-4.21,4.31.03,2.35,1.96,4.24,4.31,4.21,2.35-.03,4.24-1.96,4.21-4.31-.03-2.35-1.96-4.24-4.31-4.21Z"/>
    <path class="cls-2" d="M95.02,30.76c-2.35.03-4.24,1.96-4.21,4.31.03,2.35,1.96,4.24,4.31,4.21,2.35-.03,4.24-1.96,4.21-4.31-.03-2.35-1.96-4.24-4.31-4.21Z"/>
  </g>
</svg>