<?xml version="1.0" encoding="UTF-8"?>
<svg id="Objects" xmlns="http://www.w3.org/2000/svg" viewBox="0 0 62 62">
  <defs>
    <style>
      .cls-1 {
        fill: #e0e0e0;
      }

      .cls-1, .cls-2 {
        stroke-width: 0px;
      }

      .cls-2 {
        fill: #9e9e9e;
      }
    </style>
  </defs>
  <path class="cls-1" d="M62,31c0,8.67-3.56,16.51-9.3,22.14-.5.49-1.03.97-1.56,1.43-.21.18-.43.36-.65.54-.02.02-.05.04-.07.05-.77.62-1.57,1.2-2.39,1.75-4.89,3.22-10.73,5.09-17.02,5.09s-12.13-1.87-17.02-5.09c-.83-.54-1.62-1.13-2.39-1.75-.02-.02-.05-.04-.07-.05-.22-.18-.44-.36-.65-.54-.54-.46-1.06-.94-1.56-1.43C3.56,47.51,0,39.67,0,31,0,13.88,13.88,0,31,0s31,13.88,31,31Z"/>
  <path class="cls-2" d="M50.41,55.17c-.77.62-1.57,1.2-2.39,1.75-4.89,3.22-10.73,5.09-17.02,5.09s-12.13-1.87-17.02-5.09c-.83-.54-1.62-1.13-2.39-1.75.48-4.5,3.45-8.4,7.76-10.02l7.02-2.63v-2.58c-.52-.33-1-.69-1.43-1.07-5.84.86-9.17-2.25-9.17-2.25,0,0,2.24-2.68,2.24-9.86h0v-4.65c0-7.04,5.91-12.99,12.99-12.99s12.99,5.95,12.99,12.99v4.64h0c0,7.2,2.24,9.88,2.24,9.88,0,0-3.35,3.12-9.19,2.26-.42.38-.89.73-1.41,1.06v2.58l7.02,2.63c4.31,1.61,7.28,5.52,7.76,10.02Z"/>
</svg>