<?xml version="1.0" encoding="UTF-8"?>
<svg id="Objects" xmlns="http://www.w3.org/2000/svg" viewBox="0 0 62 62">
  <defs>
    <style>
      .cls-1 {
        fill: #e0e0e0;
      }

      .cls-1, .cls-2 {
        stroke-width: 0px;
      }

      .cls-2 {
        fill: #9e9e9e;
      }
    </style>
  </defs>
  <path class="cls-1" d="M62,31c0,8.67-3.56,16.51-9.3,22.14-.5.49-1.03.97-1.56,1.43-.99.84-2.02,1.63-3.11,2.34-4.89,3.22-10.73,5.09-17.02,5.09s-12.13-1.87-17.02-5.09c-1.09-.71-2.13-1.5-3.11-2.34-.54-.46-1.06-.94-1.56-1.43C3.56,47.51,0,39.67,0,31,0,13.88,13.88,0,31,0s31,13.88,31,31Z"/>
  <path class="cls-2" d="M52.7,53.14c-.5.49-1.03.97-1.56,1.43-.99.84-2.02,1.63-3.11,2.34-4.89,3.22-10.73,5.09-17.02,5.09s-12.13-1.87-17.02-5.09c-1.09-.71-2.13-1.5-3.11-2.34-.54-.46-1.06-.94-1.56-1.43,1.24-3.52,4.07-6.35,7.76-7.52l9.27-2.93v-1.53c-1.16-.68-2.2-1.46-3.06-2.05-1.59-1.07-2.66-2.76-2.98-4.65l-.49-2.96c-1.55,0-2.8-1.25-2.8-2.8v-6.53c0-3.86,1.57-7.36,4.09-9.89,2.54-2.53,6.02-4.09,9.9-4.09,7.72,0,13.99,6.27,13.99,13.99v6.53c0,1.55-1.25,2.8-2.8,2.8l-.49,2.96c-.32,1.89-1.39,3.58-2.98,4.65-.86.58-1.88,1.37-3.05,2.05v1.53l9.26,2.93c3.7,1.17,6.53,4,7.77,7.52Z"/>
</svg>