<?xml version="1.0" encoding="UTF-8"?>
<svg id="Objects" xmlns="http://www.w3.org/2000/svg" viewBox="0 0 62 62">
  <defs>
    <style>
      .cls-1 {
        fill: #e0e0e0;
      }

      .cls-1, .cls-2 {
        stroke-width: 0px;
      }

      .cls-2 {
        fill: #9e9e9e;
      }
    </style>
  </defs>
  <path class="cls-1" d="M62,31c0,8.67-3.56,16.51-9.3,22.14-.5.49-1.03.97-1.56,1.43-.21.18-.43.36-.65.54-.79.64-1.61,1.24-2.46,1.8-4.89,3.22-10.73,5.09-17.02,5.09s-12.13-1.87-17.02-5.09c-.85-.56-1.67-1.16-2.46-1.8-.22-.18-.44-.36-.65-.54-.54-.46-1.06-.94-1.56-1.43C3.56,47.51,0,39.67,0,31,0,13.88,13.88,0,31,0s31,13.88,31,31Z"/>
  <path class="cls-2" d="M50.48,55.11c-.79.64-1.61,1.24-2.46,1.8-4.89,3.22-10.73,5.09-17.02,5.09s-12.13-1.87-17.02-5.09c-.85-.56-1.67-1.16-2.46-1.8.52-3.98,3-7.47,6.59-9.25-2.01-.74-3.47-1.96-4.36-2.88-.6-.62-.63-1.57-.1-2.24,1.49-1.87,4.26-5.47,4.29-13.78v-4.79c0-7.08,5.93-13.06,13.06-13.06s13.06,5.98,13.06,13.06v4.66c0,8.39,2.79,12.03,4.29,13.91.53.67.49,1.62-.1,2.24-.89.92-2.35,2.15-4.36,2.88,3.6,1.78,6.08,5.26,6.6,9.25Z"/>
</svg>