<?xml version="1.0" encoding="UTF-8"?>
<svg id="Objects" xmlns="http://www.w3.org/2000/svg" viewBox="0 0 62 62">
  <defs>
    <style>
      .cls-1 {
        fill: #e0e0e0;
      }

      .cls-1, .cls-2 {
        stroke-width: 0px;
      }

      .cls-2 {
        fill: #9e9e9e;
      }
    </style>
  </defs>
  <path class="cls-1" d="M62,31c0,8.67-3.56,16.51-9.3,22.14-.04.03-.07.07-.11.11-.47.46-.96.9-1.46,1.33-.99.84-2.02,1.63-3.11,2.34-4.89,3.22-10.73,5.09-17.02,5.09s-12.13-1.87-17.02-5.09c-1.09-.71-2.13-1.5-3.11-2.34-.5-.43-.99-.87-1.46-1.33-.04-.03-.07-.07-.11-.11C3.56,47.51,0,39.67,0,31,0,13.88,13.88,0,31,0s31,13.88,31,31Z"/>
  <path class="cls-2" d="M52.59,52.87c-.47.46-.96.9-1.46,1.33-.99.84-2.02,1.63-3.11,2.34-4.89,3.22-10.73,5.09-17.02,5.09s-12.13-1.87-17.02-5.09c-1.09-.71-2.13-1.5-3.11-2.34-.5-.43-.99-.87-1.46-1.33,1.17-3.62,4.03-6.55,7.79-7.74l9.18-2.9v-1.51c-1.15-.68-2.18-1.46-3.03-2.04-1.58-1.06-2.64-2.73-2.95-4.61l-.49-2.93c-1.53,0-2.77-1.24-2.77-2.77,0-1.14.68-2.12,1.66-2.54-.86-2.01-1.49-4.14-1.86-6.32-.24-1.38-.38-2.84.03-4.18.41-1.33,1.48-2.5,2.75-2.53h.17c.8-1.24,2.05-2.06,3.36-2.54,1.31-.48,2.7-.64,4.07-.8.54-.06,1.08-.12,1.62-.18,2.49-.24,5.21-.3,7.76.41,2.55.71,5.01,2.3,6.31,4.84,1.03,2.01,1.24,4.44.98,6.74-.17,1.53-.54,3.01-.97,4.48,1.07.38,1.83,1.41,1.83,2.61,0,1.53-1.24,2.77-2.77,2.77l-.49,2.93c-.31,1.88-1.37,3.54-2.95,4.61-.85.57-1.88,1.35-3.03,2.04v1.51l9.18,2.9c3.77,1.19,6.63,4.12,7.79,7.74Z"/>
</svg>