<svg width="128" height="108" viewBox="0 0 128 108" fill="none" xmlns="http://www.w3.org/2000/svg">
<path d="M0 0H128V88C128 99.0457 119.046 108 108 108H20C8.95431 108 0 99.0457 0 88V0Z" fill="#DF3838"/>
<path d="M39.2734 22.4141L37.9609 35H35.0898L37.9609 18.125H42.2148L46.1641 31.0039L50.1602 18.125H54.4141L56.8047 35H52.0703L50.6758 22.7422L47.3828 35H43.1289L39.2734 22.4141ZM75.9531 26.9258V27.1484C75.9375 27.8047 75.8672 28.4844 75.7422 29.1875C75.625 29.8906 75.457 30.5938 75.2383 31.2969C75.0195 32 74.7578 32.6953 74.4531 33.3828C74.1484 34.0703 73.8047 34.7266 73.4219 35.3516C73.0469 35.9844 72.6406 36.5742 72.2031 37.1211C71.7656 37.6758 71.3047 38.1641 70.8203 38.5859L69.0742 37.5781C69.3477 37.1172 69.5938 36.6133 69.8125 36.0664C70.0391 35.5273 70.2422 34.9609 70.4219 34.3672C70.6016 33.7734 70.7539 33.1641 70.8789 32.5391C71.0117 31.9141 71.1211 31.293 71.207 30.6758C71.293 30.0586 71.3555 29.4531 71.3945 28.8594C71.4414 28.2578 71.4648 27.6875 71.4648 27.1484C71.4648 26.7266 71.4609 26.25 71.4531 25.7188C71.4531 25.1797 71.4219 24.6328 71.3594 24.0781C71.3047 23.5234 71.2109 22.9844 71.0781 22.4609C70.9453 21.9297 70.7461 21.457 70.4805 21.043C70.2227 20.6289 69.8867 20.2969 69.4727 20.0469C69.0664 19.7969 68.5586 19.6719 67.9492 19.6719C67.4102 19.6719 66.9453 19.7656 66.5547 19.9531C66.1719 20.1328 65.8438 20.3789 65.5703 20.6914C65.3047 20.9961 65.0898 21.3516 64.9258 21.7578C64.7695 22.1641 64.6445 22.5938 64.5508 23.0469C64.4648 23.4922 64.4062 23.9453 64.375 24.4062C64.3516 24.8594 64.3398 25.2891 64.3398 25.6953V28.9648H69.3906V30.8984H64.3398V35H59.6875V26.4219C59.6875 25.1953 59.8828 24.0547 60.2734 23C60.6641 21.9453 61.2148 21.0312 61.9258 20.2578C62.6445 19.4766 63.5039 18.8672 64.5039 18.4297C65.5117 17.9844 66.6328 17.7617 67.8672 17.7617C68.7031 17.7617 69.4844 17.8828 70.2109 18.125C70.9453 18.3594 71.6133 18.6875 72.2148 19.1094C72.8164 19.5234 73.3516 20.0195 73.8203 20.5977C74.2969 21.168 74.6914 21.793 75.0039 22.4727C75.3242 23.1523 75.5664 23.8711 75.7305 24.6289C75.8945 25.3867 75.9688 26.1523 75.9531 26.9258ZM91.8438 18.125L86.3828 27.9102V35H81.7305V28.168L76.2109 18.125H80.957L84.625 26.6094L88.5625 18.125H91.8438Z" fill="white"/>
<path d="M70.8145 60.415C70.8145 61.8636 70.6191 63.1169 70.2285 64.1748C69.8379 65.2165 69.3089 66.1117 68.6416 66.8604C67.9743 67.609 67.1849 68.2438 66.2734 68.7646C65.3783 69.2692 64.418 69.7168 63.3926 70.1074C62.3672 70.498 61.3011 70.848 60.1943 71.1572C59.1038 71.4665 58.0215 71.792 56.9473 72.1338C55.873 72.4756 54.8395 72.8662 53.8467 73.3057C52.8538 73.7451 51.9587 74.2904 51.1611 74.9414C50.3636 75.5762 49.68 76.3493 49.1104 77.2607C48.5407 78.1559 48.1501 79.2383 47.9385 80.5078H70.8145V85H37.5137C37.8717 82.7539 38.3844 80.8171 39.0518 79.1895C39.7191 77.5456 40.4922 76.1377 41.3711 74.9658C42.25 73.7939 43.2021 72.8174 44.2275 72.0361C45.2692 71.2386 46.3353 70.5713 47.4258 70.0342C48.5163 69.4808 49.6149 69.0251 50.7217 68.667C51.8285 68.2926 52.8945 67.9346 53.9199 67.5928C54.9453 67.251 55.8975 66.8929 56.7764 66.5186C57.6715 66.1279 58.4447 65.6478 59.0957 65.0781C59.763 64.5085 60.2839 63.8167 60.6582 63.0029C61.0326 62.1729 61.2197 61.1475 61.2197 59.9268C61.2197 58.82 61.0326 57.8516 60.6582 57.0215C60.2839 56.1914 59.7712 55.4997 59.1201 54.9463C58.4691 54.3929 57.696 53.9779 56.8008 53.7012C55.9219 53.4245 54.9779 53.2861 53.9688 53.2861C52.9108 53.2861 51.9261 53.4814 51.0146 53.8721C50.1195 54.2627 49.3057 54.8161 48.5732 55.5322C47.8571 56.2321 47.2305 57.0785 46.6934 58.0713C46.1725 59.0641 45.7738 60.1709 45.4971 61.3916L38.002 57.2412C38.6693 55.874 39.6133 54.6859 40.834 53.6768C42.071 52.6676 43.4382 51.8294 44.9355 51.1621C46.4329 50.4785 47.9873 49.974 49.5986 49.6484C51.2262 49.3066 52.7643 49.1357 54.2129 49.1357C55.6126 49.1357 56.9961 49.1927 58.3633 49.3066C59.7305 49.4206 61.0244 49.6322 62.2451 49.9414C63.4821 50.2507 64.6214 50.6738 65.6631 51.2109C66.7048 51.748 67.6081 52.4398 68.373 53.2861C69.138 54.1162 69.7321 55.1172 70.1553 56.2891C70.5947 57.4609 70.8145 58.8363 70.8145 60.415ZM94.8379 85H75.7705V80.5322H80.458V54.3115H75.7705V49.8438H90.1504V80.5322H94.8379V85Z" fill="white"/>
</svg>
