<svg width="128" height="108" viewBox="0 0 128 108" fill="none" xmlns="http://www.w3.org/2000/svg">
<path d="M0 0H128V88C128 99.0457 119.046 108 108 108H20C8.95431 108 0 99.0457 0 88V0Z" fill="#DF3838"/>
<path d="M39.2734 22.4141L37.9609 35H35.0898L37.9609 18.125H42.2148L46.1641 31.0039L50.1602 18.125H54.4141L56.8047 35H52.0703L50.6758 22.7422L47.3828 35H43.1289L39.2734 22.4141ZM75.9531 26.9258V27.1484C75.9375 27.8047 75.8672 28.4844 75.7422 29.1875C75.625 29.8906 75.457 30.5938 75.2383 31.2969C75.0195 32 74.7578 32.6953 74.4531 33.3828C74.1484 34.0703 73.8047 34.7266 73.4219 35.3516C73.0469 35.9844 72.6406 36.5742 72.2031 37.1211C71.7656 37.6758 71.3047 38.1641 70.8203 38.5859L69.0742 37.5781C69.3477 37.1172 69.5938 36.6133 69.8125 36.0664C70.0391 35.5273 70.2422 34.9609 70.4219 34.3672C70.6016 33.7734 70.7539 33.1641 70.8789 32.5391C71.0117 31.9141 71.1211 31.293 71.207 30.6758C71.293 30.0586 71.3555 29.4531 71.3945 28.8594C71.4414 28.2578 71.4648 27.6875 71.4648 27.1484C71.4648 26.7266 71.4609 26.25 71.4531 25.7188C71.4531 25.1797 71.4219 24.6328 71.3594 24.0781C71.3047 23.5234 71.2109 22.9844 71.0781 22.4609C70.9453 21.9297 70.7461 21.457 70.4805 21.043C70.2227 20.6289 69.8867 20.2969 69.4727 20.0469C69.0664 19.7969 68.5586 19.6719 67.9492 19.6719C67.4102 19.6719 66.9453 19.7656 66.5547 19.9531C66.1719 20.1328 65.8438 20.3789 65.5703 20.6914C65.3047 20.9961 65.0898 21.3516 64.9258 21.7578C64.7695 22.1641 64.6445 22.5938 64.5508 23.0469C64.4648 23.4922 64.4062 23.9453 64.375 24.4062C64.3516 24.8594 64.3398 25.2891 64.3398 25.6953V28.9648H69.3906V30.8984H64.3398V35H59.6875V26.4219C59.6875 25.1953 59.8828 24.0547 60.2734 23C60.6641 21.9453 61.2148 21.0312 61.9258 20.2578C62.6445 19.4766 63.5039 18.8672 64.5039 18.4297C65.5117 17.9844 66.6328 17.7617 67.8672 17.7617C68.7031 17.7617 69.4844 17.8828 70.2109 18.125C70.9453 18.3594 71.6133 18.6875 72.2148 19.1094C72.8164 19.5234 73.3516 20.0195 73.8203 20.5977C74.2969 21.168 74.6914 21.793 75.0039 22.4727C75.3242 23.1523 75.5664 23.8711 75.7305 24.6289C75.8945 25.3867 75.9688 26.1523 75.9531 26.9258ZM91.8438 18.125L86.3828 27.9102V35H81.7305V28.168L76.2109 18.125H80.957L84.625 26.6094L88.5625 18.125H91.8438Z" fill="white"/>
<path d="M57.4355 85H38.3682V80.5322H43.0557V54.3115H38.3682V49.8438H52.748V80.5322H57.4355V85ZM73.7686 85H63.5879L78.7734 54.3359H59.6328V49.8438H88.4658V54.3359L73.7686 85Z" fill="white"/>
</svg>
